<svg width="95" height="24" viewBox="0 0 95 24" fill="none" xmlns="http://www.w3.org/2000/svg">
<path d="M11.5936 4.60547V6.57812H1.04672V4.60547H5.08969V2.92578H7.57016V4.60547H11.5936ZM1.9061 10.4258C1.9061 8.47266 3.74203 7.1543 6.32016 7.14453C8.90805 7.1543 10.6952 8.47266 10.6952 10.4258C10.6952 12.3789 8.90805 13.6973 6.32016 13.707C3.74203 13.6973 1.9061 12.3789 1.9061 10.4258ZM3.17563 16.9102V14.918H15.1483V20.7969H12.6483V16.9102H3.17563ZM4.3475 10.4258C4.33774 11.334 5.12875 11.8027 6.32016 11.793C7.52133 11.8027 8.33188 11.334 8.33188 10.4258C8.33188 9.50781 7.52133 9.01953 6.32016 9.01953C5.12875 9.01953 4.33774 9.50781 4.3475 10.4258ZM12.6483 14.1758V3.02344H15.1483V7.63281H17.5506V9.66406H15.1483V14.1758H12.6483ZM23.7955 6.1875C23.7955 8.11133 24.7916 10.0059 27.1548 10.9141L25.8267 12.8086C24.3033 12.2324 23.2584 11.1777 22.6236 9.86914C21.9791 11.4023 20.8658 12.6816 19.2056 13.375L17.858 11.4609C20.3677 10.3574 21.3736 8.16992 21.3736 6.1875V4.09766H23.7955V6.1875ZM21.1588 17.4766C21.149 15.3965 23.5416 14.1465 27.3111 14.1562C31.0611 14.1465 33.4634 15.3965 33.483 17.4766C33.4634 19.5371 31.0611 20.8066 27.3111 20.7969C23.5416 20.8066 21.149 19.5371 21.1588 17.4766ZM23.6588 17.4766C23.6392 18.4336 24.9771 18.9219 27.3111 18.9219C29.6256 18.9219 30.9634 18.4336 30.9634 17.4766C30.9634 16.5098 29.6256 16.0117 27.3111 16.0117C24.9771 16.0117 23.6392 16.5098 23.6588 17.4766ZM27.2134 13.3555V3.35547H29.5377V7.37891H31.022V3.04297H33.3853V13.9023H31.022V9.39062H29.5377V13.3555H27.2134ZM50.1575 3.02344V13.4336H47.677V11.168H44.3567V12.457H35.9192V4.33203H44.3567V5.62109H47.677V3.02344H50.1575ZM37.97 17.3594C37.97 15.1719 40.2942 13.8926 44.0833 13.9023C47.8821 13.8926 50.2063 15.1719 50.2161 17.3594C50.2063 19.5566 47.8821 20.8066 44.0833 20.7969C40.2942 20.8066 37.97 19.5566 37.97 17.3594ZM38.3997 10.4844H41.9153V6.30469H38.3997V10.4844ZM40.4505 17.3594C40.4505 18.375 41.7298 18.9023 44.0833 18.9023C46.4466 18.9023 47.7259 18.375 47.7356 17.3594C47.7259 16.3047 46.4466 15.7969 44.0833 15.7969C41.7298 15.7969 40.4505 16.3047 40.4505 17.3594ZM44.3567 9.15625H47.677V7.59375H44.3567V9.15625ZM61.6367 4.05859C61.6367 6.04102 63.7266 8.23828 67.6328 8.76562L66.6953 10.7383C63.6973 10.2891 61.4902 8.91211 60.3574 7.08594C59.2148 8.94141 56.9981 10.3281 54 10.7773L53.082 8.82422C56.9688 8.26758 59.0586 6.10938 59.0781 4.05859V3.47266H61.6367V4.05859ZM52.2227 13.7461V11.7539H68.4922V13.7461H61.793V16.8125H59.332V13.7461H52.2227ZM54.1367 20.4844V15.2695H56.6172V18.4922H66.6953V20.4844H54.1367Z" fill="#FB9EBC"/>
<path d="M83 19L77 13M83 19L89 13M83 19L83 5" stroke="#FB9EBC" stroke-width="2" stroke-linecap="round" stroke-linejoin="round"/>
</svg>
