<svg xmlns="http://www.w3.org/2000/svg" width="95" height="25" fill="none"><path fill="#FB9EBC" d="M11.613 5.852v1.25H1.262v-1.25h4.414V3.898h1.523v1.954zm-9.355 5.293C2.248 9.23 3.928 8.02 6.438 8c2.49.02 4.16 1.23 4.179 3.145-.02 1.884-1.69 3.115-4.18 3.125-2.51-.01-4.19-1.24-4.18-3.125m1.172 5.898v-1.25h11.367v5.547h-1.524v-4.297zm.293-5.898c-.01 1.152 1.074 1.904 2.714 1.894 1.621.01 2.715-.742 2.735-1.894C9.152 9.963 8.058 9.2 6.437 9.19c-1.64.01-2.724.772-2.714 1.954m9.55 3.69V3.978h1.524V8.8h2.617v1.289h-2.617v4.746zm10.19-7.401c.01 1.923 1.348 3.867 3.575 4.707l-.801 1.172a6.14 6.14 0 0 1-3.496-3.38c-.635 1.651-1.885 3.126-3.594 3.868l-.84-1.192c2.285-.996 3.682-3.242 3.692-5.175V5.07h1.464zm-1.992 10.78c-.02-1.962 2.207-3.114 5.82-3.105 3.594-.01 5.83 1.143 5.84 3.106-.01 1.943-2.246 3.086-5.84 3.086-3.613 0-5.84-1.143-5.82-3.086m1.524 0c-.02 1.183 1.63 1.905 4.297 1.895 2.636.01 4.296-.713 4.316-1.894-.02-1.201-1.68-1.924-4.316-1.934-2.666.01-4.317.733-4.297 1.934m4.824-4.042V4.328h1.445v4.336h2.305V3.996h1.465V14.72h-1.465V9.934h-2.305v4.238zM49.747 3.977V14.27h-1.543v-2.735h-4.062v1.485h-7.969V5.305h7.969v1.504h4.062V3.977zm-12.05 7.793h4.941V6.555h-4.941zm.468 6.289c-.01-2.09 2.207-3.291 5.82-3.282 3.604-.01 5.82 1.192 5.82 3.282 0 2.07-2.216 3.242-5.82 3.242-3.613 0-5.83-1.172-5.82-3.242m1.524 0c-.01 1.26 1.63 2.03 4.297 2.03 2.656 0 4.297-.77 4.297-2.03 0-1.309-1.641-2.07-4.297-2.09-2.666.02-4.307.781-4.297 2.09m4.453-7.813h4.062V8.078h-4.062zm16.987-4.941c-.01 2.275 3.154 4.345 6.172 4.804l-.606 1.211c-2.636-.449-5.254-1.914-6.347-3.935-1.094 2.06-3.721 3.506-6.367 3.955l-.606-1.211c3.037-.469 6.172-2.48 6.172-4.824v-.88h1.582zm-8.73 8.789v-1.27h15.898v1.27h-7.07v3.554h-1.524v-3.554zm2.03 6.875v-5.02h1.544v3.73h10.546v1.29z"/><path stroke="#FB9EBC" stroke-linecap="round" stroke-linejoin="round" stroke-width="2" d="m83 5.758 6 6m-6-6-6 6m6-6v14"/></svg>