<svg width="1954" height="72" viewBox="0 0 1954 72" fill="none" xmlns="http://www.w3.org/2000/svg">
<rect width="1953.32" height="72" fill="black"/>
<path d="M190.709 29.9176C190.853 29.7134 190.853 29.7134 190.853 29.7134L190.853 29.7133L190.853 29.713L190.852 29.7122L190.848 29.7096L190.834 29.7001C190.822 29.6919 190.805 29.6801 190.782 29.6651C190.738 29.6351 190.672 29.5923 190.588 29.5396C190.419 29.4343 190.175 29.2897 189.871 29.1306C189.265 28.8128 188.417 28.4343 187.451 28.1969C183.931 27.3315 179.732 28.8716 177.009 31.2538C175.274 32.7716 174.212 34.1644 173.582 35.1832C173.268 35.6924 173.061 36.1079 172.933 36.3984C172.913 36.4428 172.895 36.4842 172.879 36.5226C172.786 36.4417 172.672 36.3381 172.544 36.2131C172.19 35.8675 171.735 35.3598 171.324 34.712C170.505 33.4184 169.871 31.5768 170.58 29.3378C171.297 27.0746 172.656 25.6902 174.286 24.9477C175.925 24.2017 177.857 24.0956 179.717 24.4325C182.727 24.9776 186.956 26.4503 189.697 27.405C190.388 27.6457 190.985 27.8535 191.443 28.0052C192.583 28.3821 193.586 28.6355 194.779 28.7087C195.915 28.7782 197.213 28.684 198.957 28.3889C198.963 28.468 198.967 28.5654 198.966 28.6791C198.963 29.0285 198.915 29.5324 198.731 30.1376C198.364 31.3439 197.45 32.9717 195.235 34.5839C192.994 36.2139 190.627 37.4831 188.627 38.4851C188.127 38.7355 187.651 38.969 187.205 39.1874L187.154 39.2124C186.727 39.4212 186.329 39.6163 185.966 39.7985C185.218 40.1748 184.605 40.5046 184.211 40.7953C183.961 40.9798 183.693 41.1587 183.413 41.3462C183.279 41.4359 183.141 41.5276 183.002 41.6228C182.576 41.913 182.139 42.2291 181.739 42.5969C180.935 43.3372 180.281 44.2909 180.159 45.6778C180.018 47.2685 180.778 48.322 181.844 48.9221C182.894 49.5127 184.239 49.6673 185.327 49.513C186.067 49.4081 186.732 49.1572 187.176 48.6149C187.62 48.0708 187.802 47.2829 187.685 46.1949C187.651 45.8809 187.616 45.5852 187.582 45.3032C187.528 44.8482 187.477 44.4292 187.446 44.0281C187.395 43.385 187.395 42.819 187.502 42.2868C187.713 41.2409 188.348 40.2684 189.988 39.1106C191.581 37.9858 193.459 37.9092 195.101 38.4425C196.75 38.9781 198.124 40.1175 198.706 41.3705C199.896 43.9325 199.492 48.1498 196.363 50.8139C194.766 52.1733 193.518 52.9383 192.147 53.345C190.771 53.7531 189.249 53.8077 187.087 53.705C184.984 53.6051 183.088 52.4816 181.194 51.2079C180.938 51.0356 180.681 50.8603 180.424 50.6846C178.806 49.5783 177.167 48.4586 175.434 47.981C173.504 47.4491 172.127 47.498 171.222 47.6901C170.795 47.7806 170.475 47.9024 170.253 48.0084C170.251 47.9136 170.25 47.8035 170.25 47.6801C170.252 47.2189 170.281 46.5721 170.389 45.832C170.604 44.3476 171.132 42.5108 172.369 41.0378C174.909 38.0145 178.098 35.4454 181.333 34.091C181.803 33.8941 184.171 32.9086 186.422 31.972L189.457 30.7091L190.437 30.3017L190.709 30.1884L190.781 30.1586L190.799 30.151L190.804 30.1491L190.805 30.1486L190.805 30.1485C190.805 30.1485 190.805 30.1484 190.709 29.9176ZM190.709 29.9176L190.853 29.7134L191.223 29.9746L190.805 30.1484L190.709 29.9176Z" fill="#FB9EBC" stroke="black" stroke-width="0.5"/>
<path d="M224.281 29.9176C224.377 30.1484 224.377 30.1485 224.377 30.1485L224.377 30.1486L224.376 30.1491L224.371 30.151L224.353 30.1586L224.281 30.1884L224.009 30.3017L223.03 30.7091L219.994 31.972C217.743 32.9086 215.376 33.8941 214.905 34.091C211.671 35.4454 208.481 38.0145 205.941 41.0378C204.704 42.5108 204.176 44.3476 203.961 45.832C203.853 46.5721 203.824 47.2189 203.822 47.6801C203.822 47.8035 203.823 47.9136 203.825 48.0084C204.047 47.9024 204.367 47.7806 204.794 47.6901C205.7 47.498 207.076 47.4491 209.007 47.981C210.739 48.4586 212.378 49.5783 213.997 50.6846C214.254 50.8603 214.51 51.0356 214.766 51.2079C216.661 52.4816 218.556 53.6051 220.659 53.705C222.822 53.8077 224.344 53.7531 225.719 53.345C227.091 52.9383 228.339 52.1733 229.935 50.8139C233.065 48.1498 233.468 43.9325 232.278 41.3705C231.697 40.1175 230.322 38.9781 228.673 38.4425C227.032 37.9092 225.153 37.9858 223.56 39.1106C221.921 40.2684 221.285 41.2409 221.075 42.2868C220.968 42.819 220.967 43.385 221.018 44.0281C221.05 44.4292 221.1 44.8482 221.154 45.3032C221.188 45.5852 221.223 45.8809 221.257 46.1949C221.374 47.2829 221.193 48.0708 220.748 48.6149C220.305 49.1572 219.639 49.4081 218.899 49.513C217.811 49.6673 216.466 49.5127 215.417 48.9221C214.35 48.322 213.59 47.2685 213.731 45.6778C213.854 44.2909 214.508 43.3372 215.312 42.5969C215.711 42.2291 216.148 41.913 216.574 41.6228C216.714 41.5276 216.851 41.4359 216.985 41.3462C217.266 41.1587 217.533 40.9798 217.783 40.7953C218.177 40.5046 218.79 40.1748 219.539 39.7985C219.901 39.6163 220.3 39.4211 220.726 39.2122L220.777 39.1874C221.223 38.969 221.7 38.7355 222.2 38.4851C224.199 37.4831 226.566 36.2139 228.807 34.5839C231.023 32.9717 231.937 31.3439 232.304 30.1376C232.488 29.5324 232.536 29.0285 232.538 28.6791C232.539 28.5654 232.535 28.468 232.53 28.3889C230.785 28.684 229.487 28.7782 228.352 28.7087C227.158 28.6355 226.155 28.3821 225.016 28.0052C224.557 27.8535 223.96 27.6457 223.269 27.405C220.528 26.4503 216.3 24.9776 213.29 24.4325C211.429 24.0956 209.497 24.2017 207.859 24.9477C206.228 25.6902 204.869 27.0746 204.152 29.3378C203.444 31.5768 204.077 33.4184 204.897 34.712C205.307 35.3598 205.763 35.8675 206.116 36.2131C206.244 36.3381 206.358 36.4417 206.451 36.5226C206.468 36.4842 206.485 36.4428 206.505 36.3984C206.633 36.1079 206.84 35.6924 207.155 35.1832C207.784 34.1644 208.846 32.7716 210.581 31.2538C213.305 28.8716 217.503 27.3315 221.023 28.1969C221.989 28.4343 222.838 28.8128 223.444 29.1306C223.747 29.2897 223.991 29.4343 224.16 29.5396C224.244 29.5923 224.31 29.6351 224.355 29.6651C224.377 29.6801 224.395 29.6919 224.406 29.7001L224.42 29.7096L224.424 29.7122L224.425 29.713L224.425 29.7133L224.426 29.7134C224.426 29.7134 224.426 29.7134 224.281 29.9176ZM224.281 29.9176L224.377 30.1484L224.795 29.9746L224.426 29.7134L224.281 29.9176Z" fill="#FB9EBC" stroke="black" stroke-width="0.5"/>
<path d="M257.854 29.9176C257.95 30.1484 257.95 30.1485 257.95 30.1485L257.949 30.1486L257.948 30.1491L257.944 30.151L257.925 30.1586L257.854 30.1884L257.581 30.3017L256.602 30.7091L253.566 31.972C251.316 32.9086 248.948 33.8941 248.478 34.091C245.243 35.4454 242.053 38.0145 239.514 41.0378C238.276 42.5108 237.749 44.3476 237.533 45.832C237.426 46.5721 237.397 47.2189 237.395 47.6801C237.394 47.8035 237.395 47.9136 237.398 48.0084C237.62 47.9024 237.94 47.7806 238.366 47.6901C239.272 47.498 240.649 47.4491 242.579 47.981C244.312 48.4586 245.95 49.5783 247.569 50.6846C247.826 50.8603 248.082 51.0356 248.339 51.2079C250.233 52.4816 252.128 53.6051 254.232 53.705C256.394 53.8077 257.916 53.7531 259.292 53.345C260.663 52.9383 261.911 52.1733 263.508 50.8139C266.637 48.1498 267.04 43.9325 265.851 41.3705C265.269 40.1175 263.895 38.9781 262.246 38.4425C260.604 37.9092 258.726 37.9858 257.133 39.1106C255.493 40.2684 254.858 41.2409 254.647 42.2868C254.54 42.819 254.539 43.385 254.59 44.0281C254.622 44.4292 254.672 44.8481 254.727 45.3032C254.76 45.5851 254.796 45.8809 254.829 46.1949C254.946 47.2829 254.765 48.0708 254.32 48.6149C253.877 49.1572 253.212 49.4081 252.472 49.513C251.383 49.6673 250.039 49.5127 248.989 48.9221C247.922 48.322 247.162 47.2685 247.303 45.6778C247.426 44.2909 248.08 43.3372 248.884 42.5969C249.283 42.2291 249.721 41.913 250.146 41.6228C250.286 41.5276 250.423 41.4359 250.557 41.3462C250.838 41.1587 251.105 40.9798 251.356 40.7953C251.75 40.5046 252.362 40.1748 253.111 39.7985C253.473 39.6163 253.872 39.4211 254.299 39.2122L254.349 39.1874C254.795 38.969 255.272 38.7355 255.772 38.4851C257.772 37.4831 260.138 36.2139 262.379 34.5839C264.595 32.9717 265.509 31.3439 265.876 30.1376C266.06 29.5324 266.108 29.0285 266.111 28.6791C266.111 28.5654 266.107 28.468 266.102 28.3889C264.358 28.684 263.06 28.7782 261.924 28.7087C260.73 28.6355 259.727 28.3821 258.588 28.0052C258.129 27.8535 257.532 27.6457 256.841 27.405C254.1 26.4503 249.872 24.9776 246.862 24.4325C245.001 24.0956 243.069 24.2017 241.431 24.9477C239.8 25.6902 238.441 27.0746 237.725 29.3378C237.016 31.5768 237.649 33.4184 238.469 34.712C238.879 35.3598 239.335 35.8675 239.688 36.2131C239.816 36.3381 239.93 36.4417 240.024 36.5226C240.04 36.4842 240.058 36.4428 240.077 36.3984C240.206 36.1079 240.412 35.6924 240.727 35.1832C241.356 34.1644 242.418 32.7716 244.154 31.2538C246.877 28.8716 251.075 27.3315 254.595 28.1969C255.561 28.4343 256.41 28.8128 257.016 29.1306C257.319 29.2897 257.563 29.4343 257.732 29.5396C257.816 29.5923 257.882 29.6351 257.927 29.6651C257.949 29.6801 257.967 29.6919 257.979 29.7001L257.992 29.7096L257.996 29.7122L257.997 29.713L257.998 29.7133L257.998 29.7134C257.998 29.7134 257.998 29.7134 257.854 29.9176ZM257.854 29.9176L257.95 30.1484L258.368 29.9746L257.998 29.7134L257.854 29.9176Z" fill="#FB9EBC" stroke="black" stroke-width="0.5"/>
<path d="M276.663 38.926C276.663 38.686 276.741 38.488 276.897 38.332C277.065 38.164 277.269 38.08 277.509 38.08C277.749 38.08 277.947 38.164 278.103 38.332C278.271 38.488 278.355 38.686 278.355 38.926C278.355 39.166 278.271 39.37 278.103 39.538C277.947 39.694 277.749 39.772 277.509 39.772C277.269 39.772 277.065 39.694 276.897 39.538C276.741 39.37 276.663 39.166 276.663 38.926ZM274.935 45.388C274.935 45.148 275.013 44.95 275.169 44.794C275.337 44.626 275.541 44.542 275.781 44.542C276.021 44.542 276.219 44.626 276.375 44.794C276.543 44.95 276.627 45.148 276.627 45.388C276.627 45.628 276.543 45.826 276.375 45.982C276.219 46.138 276.021 46.216 275.781 46.216C275.541 46.216 275.337 46.138 275.169 45.982C275.013 45.826 274.935 45.628 274.935 45.388ZM284.871 33.436H282.891L282.963 33.184H288.255L288.183 33.436H286.437L286.329 44.038H286.365L291.063 37L291.099 33.436H289.209L289.281 33.184H294.735L294.663 33.436H292.647L292.539 43.912H292.575L299.577 33.436H297.849L297.921 33.184H301.611L301.539 33.436H299.937L291.333 46.234H290.973L291.045 37.558H291.009L285.177 46.234H284.727L284.871 33.436ZM304.925 32.572H303.287L303.359 32.32H306.203L303.197 40.474H303.233C303.413 40.234 303.623 39.982 303.863 39.718C304.103 39.442 304.367 39.19 304.655 38.962C304.943 38.734 305.243 38.548 305.555 38.404C305.879 38.248 306.203 38.17 306.527 38.17C307.031 38.17 307.427 38.308 307.715 38.584C308.015 38.848 308.165 39.178 308.165 39.574C308.165 39.778 308.129 39.982 308.057 40.186C307.997 40.378 307.919 40.612 307.823 40.888L306.653 44.218C306.581 44.422 306.515 44.626 306.455 44.83C306.395 45.022 306.365 45.214 306.365 45.406C306.365 45.55 306.395 45.682 306.455 45.802C306.515 45.922 306.641 45.982 306.833 45.982C307.049 45.982 307.247 45.922 307.427 45.802C307.607 45.682 307.769 45.538 307.913 45.37C308.069 45.202 308.201 45.028 308.309 44.848C308.417 44.656 308.501 44.494 308.561 44.362L308.759 44.452C308.699 44.572 308.615 44.734 308.507 44.938C308.399 45.13 308.255 45.322 308.075 45.514C307.907 45.706 307.697 45.868 307.445 46C307.193 46.144 306.893 46.216 306.545 46.216C306.161 46.216 305.837 46.132 305.573 45.964C305.309 45.796 305.177 45.52 305.177 45.136C305.177 44.98 305.195 44.818 305.231 44.65C305.279 44.482 305.333 44.302 305.393 44.11L306.905 39.808C307.001 39.52 307.049 39.28 307.049 39.088C307.049 38.932 306.995 38.782 306.887 38.638C306.791 38.494 306.611 38.422 306.347 38.422C306.083 38.422 305.777 38.524 305.429 38.728C305.081 38.92 304.733 39.19 304.385 39.538C304.037 39.874 303.707 40.276 303.395 40.744C303.095 41.2 302.849 41.698 302.657 42.238L301.307 46H300.065L304.925 32.572ZM315.763 39.16C315.763 38.92 315.691 38.716 315.547 38.548C315.403 38.38 315.163 38.296 314.827 38.296C314.455 38.296 314.095 38.404 313.747 38.62C313.411 38.836 313.105 39.106 312.829 39.43C312.553 39.742 312.313 40.084 312.109 40.456C311.905 40.816 311.749 41.152 311.641 41.464C311.917 41.512 312.223 41.536 312.559 41.536C312.991 41.536 313.399 41.47 313.783 41.338C314.167 41.206 314.503 41.032 314.791 40.816C315.091 40.6 315.325 40.348 315.493 40.06C315.673 39.772 315.763 39.472 315.763 39.16ZM315.799 44.236C315.727 44.32 315.619 44.476 315.475 44.704C315.331 44.92 315.133 45.142 314.881 45.37C314.629 45.586 314.317 45.784 313.945 45.964C313.585 46.132 313.147 46.216 312.631 46.216C312.115 46.216 311.677 46.132 311.317 45.964C310.969 45.796 310.681 45.58 310.453 45.316C310.237 45.052 310.075 44.764 309.967 44.452C309.871 44.128 309.823 43.816 309.823 43.516C309.823 42.916 309.967 42.298 310.255 41.662C310.555 41.014 310.939 40.426 311.407 39.898C311.887 39.358 312.427 38.914 313.027 38.566C313.627 38.218 314.239 38.044 314.863 38.044C315.103 38.044 315.343 38.074 315.583 38.134C315.823 38.182 316.039 38.26 316.231 38.368C316.423 38.476 316.579 38.614 316.699 38.782C316.819 38.95 316.879 39.154 316.879 39.394C316.879 39.718 316.789 40.006 316.609 40.258C316.441 40.498 316.219 40.708 315.943 40.888C315.667 41.056 315.361 41.2 315.025 41.32C314.701 41.44 314.383 41.536 314.071 41.608C313.759 41.668 313.471 41.716 313.207 41.752C312.955 41.776 312.769 41.788 312.649 41.788C312.445 41.788 312.247 41.782 312.055 41.77C311.863 41.758 311.695 41.74 311.551 41.716C311.419 42.1 311.305 42.484 311.209 42.868C311.125 43.24 311.083 43.636 311.083 44.056C311.083 44.704 311.251 45.19 311.587 45.514C311.923 45.826 312.349 45.982 312.865 45.982C313.249 45.982 313.585 45.91 313.873 45.766C314.173 45.61 314.431 45.43 314.647 45.226C314.875 45.022 315.061 44.818 315.205 44.614C315.361 44.398 315.487 44.23 315.583 44.11L315.799 44.236ZM319.485 40.456C319.593 40.144 319.695 39.826 319.791 39.502C319.887 39.178 319.983 38.854 320.079 38.53H318.513L318.585 38.278H321.357C321.297 38.53 321.207 38.848 321.087 39.232C320.979 39.616 320.859 39.988 320.727 40.348L320.763 40.384C320.883 40.204 321.033 39.988 321.213 39.736C321.393 39.484 321.597 39.244 321.825 39.016C322.053 38.776 322.305 38.578 322.581 38.422C322.857 38.254 323.151 38.17 323.463 38.17C323.907 38.17 324.243 38.296 324.471 38.548C324.711 38.8 324.825 39.07 324.813 39.358C324.813 39.55 324.777 39.712 324.705 39.844C324.645 39.964 324.561 40.06 324.453 40.132C324.357 40.192 324.255 40.234 324.147 40.258C324.039 40.282 323.937 40.294 323.841 40.294C323.673 40.294 323.535 40.252 323.427 40.168C323.319 40.084 323.265 39.958 323.265 39.79C323.265 39.658 323.289 39.562 323.337 39.502C323.397 39.43 323.457 39.364 323.517 39.304C323.577 39.244 323.631 39.178 323.679 39.106C323.739 39.034 323.769 38.938 323.769 38.818C323.769 38.698 323.721 38.602 323.625 38.53C323.529 38.458 323.409 38.422 323.265 38.422C323.037 38.422 322.773 38.542 322.473 38.782C322.173 39.01 321.873 39.31 321.573 39.682C321.285 40.042 321.009 40.456 320.745 40.924C320.481 41.392 320.265 41.86 320.097 42.328L318.801 46H317.541L319.485 40.456ZM330.757 39.16C330.757 38.92 330.685 38.716 330.541 38.548C330.397 38.38 330.157 38.296 329.821 38.296C329.449 38.296 329.089 38.404 328.741 38.62C328.405 38.836 328.099 39.106 327.823 39.43C327.547 39.742 327.307 40.084 327.103 40.456C326.899 40.816 326.743 41.152 326.635 41.464C326.911 41.512 327.217 41.536 327.553 41.536C327.985 41.536 328.393 41.47 328.777 41.338C329.161 41.206 329.497 41.032 329.785 40.816C330.085 40.6 330.319 40.348 330.487 40.06C330.667 39.772 330.757 39.472 330.757 39.16ZM330.793 44.236C330.721 44.32 330.613 44.476 330.469 44.704C330.325 44.92 330.127 45.142 329.875 45.37C329.623 45.586 329.311 45.784 328.939 45.964C328.579 46.132 328.141 46.216 327.625 46.216C327.109 46.216 326.671 46.132 326.311 45.964C325.963 45.796 325.675 45.58 325.447 45.316C325.231 45.052 325.069 44.764 324.961 44.452C324.865 44.128 324.817 43.816 324.817 43.516C324.817 42.916 324.961 42.298 325.249 41.662C325.549 41.014 325.933 40.426 326.401 39.898C326.881 39.358 327.421 38.914 328.021 38.566C328.621 38.218 329.233 38.044 329.857 38.044C330.097 38.044 330.337 38.074 330.577 38.134C330.817 38.182 331.033 38.26 331.225 38.368C331.417 38.476 331.573 38.614 331.693 38.782C331.813 38.95 331.873 39.154 331.873 39.394C331.873 39.718 331.783 40.006 331.603 40.258C331.435 40.498 331.213 40.708 330.937 40.888C330.661 41.056 330.355 41.2 330.019 41.32C329.695 41.44 329.377 41.536 329.065 41.608C328.753 41.668 328.465 41.716 328.201 41.752C327.949 41.776 327.763 41.788 327.643 41.788C327.439 41.788 327.241 41.782 327.049 41.77C326.857 41.758 326.689 41.74 326.545 41.716C326.413 42.1 326.299 42.484 326.203 42.868C326.119 43.24 326.077 43.636 326.077 44.056C326.077 44.704 326.245 45.19 326.581 45.514C326.917 45.826 327.343 45.982 327.859 45.982C328.243 45.982 328.579 45.91 328.867 45.766C329.167 45.61 329.425 45.43 329.641 45.226C329.869 45.022 330.055 44.818 330.199 44.614C330.355 44.398 330.481 44.23 330.577 44.11L330.793 44.236ZM337.958 44.182C337.958 44.794 338.102 45.25 338.39 45.55C338.69 45.838 339.068 45.982 339.524 45.982C339.896 45.982 340.244 45.874 340.568 45.658C340.892 45.442 341.186 45.16 341.45 44.812C341.714 44.452 341.948 44.056 342.152 43.624C342.356 43.192 342.524 42.76 342.656 42.328C342.8 41.896 342.908 41.488 342.98 41.104C343.052 40.72 343.088 40.408 343.088 40.168C343.088 39.592 342.962 39.136 342.71 38.8C342.47 38.464 342.044 38.296 341.432 38.296C341.084 38.296 340.754 38.398 340.442 38.602C340.13 38.806 339.842 39.076 339.578 39.412C339.326 39.736 339.098 40.108 338.894 40.528C338.69 40.948 338.516 41.38 338.372 41.824C338.24 42.256 338.138 42.682 338.066 43.102C337.994 43.51 337.958 43.87 337.958 44.182ZM336.77 43.174C336.77 42.454 336.92 41.782 337.22 41.158C337.52 40.522 337.898 39.976 338.354 39.52C338.822 39.064 339.338 38.704 339.902 38.44C340.466 38.176 341.006 38.044 341.522 38.044C341.99 38.044 342.398 38.14 342.746 38.332C343.094 38.524 343.382 38.77 343.61 39.07C343.838 39.37 344.006 39.7 344.114 40.06C344.222 40.42 344.276 40.768 344.276 41.104C344.276 41.8 344.126 42.46 343.826 43.084C343.526 43.696 343.148 44.236 342.692 44.704C342.236 45.172 341.726 45.544 341.162 45.82C340.61 46.084 340.082 46.216 339.578 46.216C339.146 46.216 338.756 46.132 338.408 45.964C338.072 45.796 337.778 45.574 337.526 45.298C337.286 45.022 337.1 44.704 336.968 44.344C336.836 43.972 336.77 43.582 336.77 43.174ZM346.264 38.278H349.162L347.092 44.218C346.996 44.47 346.924 44.698 346.876 44.902C346.828 45.094 346.804 45.238 346.804 45.334C346.804 45.502 346.846 45.652 346.93 45.784C347.026 45.916 347.182 45.982 347.398 45.982C347.722 45.982 348.07 45.862 348.442 45.622C348.826 45.37 349.198 45.052 349.558 44.668C349.918 44.284 350.248 43.858 350.548 43.39C350.848 42.91 351.082 42.436 351.25 41.968L352.528 38.278H353.788L351.664 44.38C351.604 44.56 351.544 44.746 351.484 44.938C351.424 45.118 351.394 45.292 351.394 45.46C351.394 45.604 351.436 45.73 351.52 45.838C351.604 45.934 351.73 45.982 351.898 45.982C352.102 45.982 352.294 45.916 352.474 45.784C352.666 45.652 352.834 45.502 352.978 45.334C353.134 45.154 353.266 44.974 353.374 44.794C353.482 44.614 353.56 44.47 353.608 44.362L353.824 44.452C353.776 44.548 353.698 44.698 353.59 44.902C353.494 45.094 353.356 45.292 353.176 45.496C352.996 45.688 352.774 45.856 352.51 46C352.246 46.144 351.934 46.216 351.574 46.216C351.178 46.216 350.86 46.138 350.62 45.982C350.392 45.814 350.278 45.538 350.278 45.154C350.278 44.95 350.302 44.758 350.35 44.578C350.398 44.386 350.47 44.17 350.566 43.93L350.53 43.894C350.362 44.11 350.158 44.356 349.918 44.632C349.69 44.896 349.438 45.148 349.162 45.388C348.898 45.616 348.61 45.814 348.298 45.982C347.998 46.138 347.686 46.216 347.362 46.216C346.846 46.216 346.438 46.096 346.138 45.856C345.838 45.616 345.688 45.268 345.688 44.812C345.688 44.632 345.73 44.422 345.814 44.182C345.898 43.93 345.97 43.708 346.03 43.516L347.794 38.53H346.192L346.264 38.278ZM356.804 40.456C356.912 40.144 357.014 39.826 357.11 39.502C357.206 39.178 357.302 38.854 357.398 38.53H355.832L355.904 38.278H358.676C358.616 38.53 358.526 38.848 358.406 39.232C358.298 39.616 358.178 39.988 358.046 40.348L358.082 40.384C358.202 40.204 358.352 39.988 358.532 39.736C358.712 39.484 358.916 39.244 359.144 39.016C359.372 38.776 359.624 38.578 359.9 38.422C360.176 38.254 360.47 38.17 360.782 38.17C361.226 38.17 361.562 38.296 361.79 38.548C362.03 38.8 362.144 39.07 362.132 39.358C362.132 39.55 362.096 39.712 362.024 39.844C361.964 39.964 361.88 40.06 361.772 40.132C361.676 40.192 361.574 40.234 361.466 40.258C361.358 40.282 361.256 40.294 361.16 40.294C360.992 40.294 360.854 40.252 360.746 40.168C360.638 40.084 360.584 39.958 360.584 39.79C360.584 39.658 360.608 39.562 360.656 39.502C360.716 39.43 360.776 39.364 360.836 39.304C360.896 39.244 360.95 39.178 360.998 39.106C361.058 39.034 361.088 38.938 361.088 38.818C361.088 38.698 361.04 38.602 360.944 38.53C360.848 38.458 360.728 38.422 360.584 38.422C360.356 38.422 360.092 38.542 359.792 38.782C359.492 39.01 359.192 39.31 358.892 39.682C358.604 40.042 358.328 40.456 358.064 40.924C357.8 41.392 357.584 41.86 357.416 42.328L356.12 46H354.86L356.804 40.456ZM372.814 40.636C372.958 40.252 373.048 39.982 373.084 39.826C373.132 39.658 373.156 39.514 373.156 39.394C373.156 39.286 373.138 39.172 373.102 39.052C373.078 38.92 373.024 38.8 372.94 38.692C372.868 38.584 372.766 38.494 372.634 38.422C372.502 38.338 372.328 38.296 372.112 38.296C371.716 38.296 371.326 38.41 370.942 38.638C370.57 38.854 370.216 39.142 369.88 39.502C369.556 39.862 369.256 40.276 368.98 40.744C368.704 41.2 368.464 41.668 368.26 42.148C368.068 42.616 367.918 43.072 367.81 43.516C367.702 43.96 367.648 44.35 367.648 44.686C367.648 45.07 367.72 45.382 367.864 45.622C368.02 45.862 368.272 45.982 368.62 45.982C368.968 45.982 369.322 45.874 369.682 45.658C370.042 45.442 370.372 45.184 370.672 44.884C370.972 44.584 371.23 44.284 371.446 43.984C371.662 43.684 371.8 43.45 371.86 43.282L372.814 40.636ZM372.958 43.732C372.85 44.044 372.754 44.344 372.67 44.632C372.598 44.92 372.562 45.178 372.562 45.406C372.562 45.718 372.712 45.874 373.012 45.874C373.252 45.874 373.468 45.808 373.66 45.676C373.852 45.532 374.014 45.376 374.146 45.208C374.29 45.028 374.404 44.854 374.488 44.686C374.584 44.506 374.65 44.38 374.686 44.308L374.92 44.434C374.86 44.566 374.77 44.734 374.65 44.938C374.53 45.142 374.374 45.34 374.182 45.532C373.99 45.712 373.768 45.868 373.516 46C373.264 46.144 372.97 46.216 372.634 46.216C371.842 46.216 371.446 45.856 371.446 45.136C371.446 45.052 371.464 44.908 371.5 44.704C371.536 44.488 371.584 44.296 371.644 44.128H371.608C371.44 44.332 371.248 44.56 371.032 44.812C370.816 45.052 370.57 45.28 370.294 45.496C370.03 45.7 369.736 45.868 369.412 46C369.088 46.144 368.728 46.216 368.332 46.216C368.08 46.216 367.834 46.168 367.594 46.072C367.366 45.988 367.162 45.856 366.982 45.676C366.802 45.484 366.658 45.244 366.55 44.956C366.454 44.668 366.406 44.326 366.406 43.93C366.406 43.45 366.502 42.97 366.694 42.49C366.886 42.01 367.132 41.554 367.432 41.122C367.744 40.678 368.098 40.27 368.494 39.898C368.902 39.526 369.31 39.202 369.718 38.926C370.138 38.65 370.546 38.434 370.942 38.278C371.35 38.122 371.71 38.044 372.022 38.044C372.382 38.044 372.688 38.146 372.94 38.35C373.192 38.554 373.318 38.824 373.318 39.16H373.354L375.694 32.572H374.11L374.182 32.32H377.044L372.958 43.732ZM378.126 40.456C378.234 40.144 378.336 39.826 378.432 39.502C378.528 39.178 378.624 38.854 378.72 38.53H377.154L377.226 38.278H379.998C379.938 38.53 379.848 38.848 379.728 39.232C379.62 39.616 379.5 39.988 379.368 40.348L379.404 40.384C379.524 40.204 379.674 39.988 379.854 39.736C380.034 39.484 380.238 39.244 380.466 39.016C380.694 38.776 380.946 38.578 381.222 38.422C381.498 38.254 381.792 38.17 382.104 38.17C382.548 38.17 382.884 38.296 383.112 38.548C383.352 38.8 383.466 39.07 383.454 39.358C383.454 39.55 383.418 39.712 383.346 39.844C383.286 39.964 383.202 40.06 383.094 40.132C382.998 40.192 382.896 40.234 382.788 40.258C382.68 40.282 382.578 40.294 382.482 40.294C382.314 40.294 382.176 40.252 382.068 40.168C381.96 40.084 381.906 39.958 381.906 39.79C381.906 39.658 381.93 39.562 381.978 39.502C382.038 39.43 382.098 39.364 382.158 39.304C382.218 39.244 382.272 39.178 382.32 39.106C382.38 39.034 382.41 38.938 382.41 38.818C382.41 38.698 382.362 38.602 382.266 38.53C382.17 38.458 382.05 38.422 381.906 38.422C381.678 38.422 381.414 38.542 381.114 38.782C380.814 39.01 380.514 39.31 380.214 39.682C379.926 40.042 379.65 40.456 379.386 40.924C379.122 41.392 378.906 41.86 378.738 42.328L377.442 46H376.182L378.126 40.456ZM389.398 39.16C389.398 38.92 389.326 38.716 389.182 38.548C389.038 38.38 388.798 38.296 388.462 38.296C388.09 38.296 387.73 38.404 387.382 38.62C387.046 38.836 386.74 39.106 386.464 39.43C386.188 39.742 385.948 40.084 385.744 40.456C385.54 40.816 385.384 41.152 385.276 41.464C385.552 41.512 385.858 41.536 386.194 41.536C386.626 41.536 387.034 41.47 387.418 41.338C387.802 41.206 388.138 41.032 388.426 40.816C388.726 40.6 388.96 40.348 389.128 40.06C389.308 39.772 389.398 39.472 389.398 39.16ZM389.434 44.236C389.362 44.32 389.254 44.476 389.11 44.704C388.966 44.92 388.768 45.142 388.516 45.37C388.264 45.586 387.952 45.784 387.58 45.964C387.22 46.132 386.782 46.216 386.266 46.216C385.75 46.216 385.312 46.132 384.952 45.964C384.604 45.796 384.316 45.58 384.088 45.316C383.872 45.052 383.71 44.764 383.602 44.452C383.506 44.128 383.458 43.816 383.458 43.516C383.458 42.916 383.602 42.298 383.89 41.662C384.19 41.014 384.574 40.426 385.042 39.898C385.522 39.358 386.062 38.914 386.662 38.566C387.262 38.218 387.874 38.044 388.498 38.044C388.738 38.044 388.978 38.074 389.218 38.134C389.458 38.182 389.674 38.26 389.866 38.368C390.058 38.476 390.214 38.614 390.334 38.782C390.454 38.95 390.514 39.154 390.514 39.394C390.514 39.718 390.424 40.006 390.244 40.258C390.076 40.498 389.854 40.708 389.578 40.888C389.302 41.056 388.996 41.2 388.66 41.32C388.336 41.44 388.018 41.536 387.706 41.608C387.394 41.668 387.106 41.716 386.842 41.752C386.59 41.776 386.404 41.788 386.284 41.788C386.08 41.788 385.882 41.782 385.69 41.77C385.498 41.758 385.33 41.74 385.186 41.716C385.054 42.1 384.94 42.484 384.844 42.868C384.76 43.24 384.718 43.636 384.718 44.056C384.718 44.704 384.886 45.19 385.222 45.514C385.558 45.826 385.984 45.982 386.5 45.982C386.884 45.982 387.22 45.91 387.508 45.766C387.808 45.61 388.066 45.43 388.282 45.226C388.51 45.022 388.696 44.818 388.84 44.614C388.996 44.398 389.122 44.23 389.218 44.11L389.434 44.236ZM397.476 40.636C397.62 40.252 397.71 39.982 397.746 39.826C397.794 39.658 397.818 39.514 397.818 39.394C397.818 39.286 397.8 39.172 397.764 39.052C397.74 38.92 397.686 38.8 397.602 38.692C397.53 38.584 397.428 38.494 397.296 38.422C397.164 38.338 396.99 38.296 396.774 38.296C396.378 38.296 395.988 38.41 395.604 38.638C395.232 38.854 394.878 39.142 394.542 39.502C394.218 39.862 393.918 40.276 393.642 40.744C393.366 41.2 393.126 41.668 392.922 42.148C392.73 42.616 392.58 43.072 392.472 43.516C392.364 43.96 392.31 44.35 392.31 44.686C392.31 45.07 392.382 45.382 392.526 45.622C392.682 45.862 392.934 45.982 393.282 45.982C393.63 45.982 393.984 45.874 394.344 45.658C394.704 45.442 395.034 45.184 395.334 44.884C395.634 44.584 395.892 44.284 396.108 43.984C396.324 43.684 396.462 43.45 396.522 43.282L397.476 40.636ZM397.62 43.732C397.512 44.044 397.416 44.344 397.332 44.632C397.26 44.92 397.224 45.178 397.224 45.406C397.224 45.718 397.374 45.874 397.674 45.874C397.914 45.874 398.13 45.808 398.322 45.676C398.514 45.532 398.676 45.376 398.808 45.208C398.952 45.028 399.066 44.854 399.15 44.686C399.246 44.506 399.312 44.38 399.348 44.308L399.582 44.434C399.522 44.566 399.432 44.734 399.312 44.938C399.192 45.142 399.036 45.34 398.844 45.532C398.652 45.712 398.43 45.868 398.178 46C397.926 46.144 397.632 46.216 397.296 46.216C396.504 46.216 396.108 45.856 396.108 45.136C396.108 45.052 396.126 44.908 396.162 44.704C396.198 44.488 396.246 44.296 396.306 44.128H396.27C396.102 44.332 395.91 44.56 395.694 44.812C395.478 45.052 395.232 45.28 394.956 45.496C394.692 45.7 394.398 45.868 394.074 46C393.75 46.144 393.39 46.216 392.994 46.216C392.742 46.216 392.496 46.168 392.256 46.072C392.028 45.988 391.824 45.856 391.644 45.676C391.464 45.484 391.32 45.244 391.212 44.956C391.116 44.668 391.068 44.326 391.068 43.93C391.068 43.45 391.164 42.97 391.356 42.49C391.548 42.01 391.794 41.554 392.094 41.122C392.406 40.678 392.76 40.27 393.156 39.898C393.564 39.526 393.972 39.202 394.38 38.926C394.8 38.65 395.208 38.434 395.604 38.278C396.012 38.122 396.372 38.044 396.684 38.044C397.044 38.044 397.35 38.146 397.602 38.35C397.854 38.554 397.98 38.824 397.98 39.16H398.016L398.322 38.278H399.582L397.62 43.732ZM403.238 38.53H401.6L401.672 38.278H404.516L403.832 40.33H403.868C404.012 40.126 404.192 39.898 404.408 39.646C404.636 39.394 404.888 39.16 405.164 38.944C405.44 38.728 405.734 38.548 406.046 38.404C406.358 38.248 406.67 38.17 406.982 38.17C407.438 38.17 407.786 38.308 408.026 38.584C408.278 38.848 408.404 39.178 408.404 39.574C408.404 39.79 408.374 40.018 408.314 40.258H408.35C408.47 40.078 408.632 39.868 408.836 39.628C409.04 39.388 409.268 39.16 409.52 38.944C409.784 38.728 410.066 38.548 410.366 38.404C410.666 38.248 410.966 38.17 411.266 38.17C411.77 38.17 412.166 38.308 412.454 38.584C412.754 38.848 412.904 39.178 412.904 39.574C412.904 39.778 412.868 39.982 412.796 40.186C412.736 40.378 412.658 40.612 412.562 40.888L411.392 44.218C411.32 44.422 411.254 44.638 411.194 44.866C411.134 45.094 411.104 45.298 411.104 45.478C411.104 45.586 411.134 45.7 411.194 45.82C411.254 45.928 411.38 45.982 411.572 45.982C411.788 45.982 411.986 45.922 412.166 45.802C412.346 45.682 412.508 45.538 412.652 45.37C412.796 45.202 412.922 45.028 413.03 44.848C413.138 44.656 413.228 44.494 413.3 44.362L413.498 44.452C413.438 44.572 413.354 44.734 413.246 44.938C413.138 45.13 412.994 45.322 412.814 45.514C412.646 45.706 412.436 45.868 412.184 46C411.932 46.144 411.632 46.216 411.284 46.216C410.9 46.216 410.576 46.132 410.312 45.964C410.048 45.796 409.916 45.52 409.916 45.136C409.916 44.98 409.928 44.83 409.952 44.686C409.976 44.542 410.036 44.35 410.132 44.11L411.644 39.808C411.74 39.52 411.788 39.28 411.788 39.088C411.788 38.884 411.74 38.722 411.644 38.602C411.548 38.482 411.362 38.422 411.086 38.422C410.834 38.422 410.546 38.524 410.222 38.728C409.91 38.932 409.592 39.208 409.268 39.556C408.956 39.904 408.656 40.312 408.368 40.78C408.08 41.236 407.84 41.722 407.648 42.238L406.298 46H405.038L407.144 40.186C407.312 39.682 407.396 39.334 407.396 39.142C407.396 38.926 407.354 38.752 407.27 38.62C407.186 38.488 407.036 38.422 406.82 38.422C406.604 38.422 406.334 38.506 406.01 38.674C405.698 38.83 405.374 39.07 405.038 39.394C404.702 39.706 404.372 40.102 404.048 40.582C403.736 41.05 403.466 41.602 403.238 42.238L401.888 46H400.646L403.238 38.53ZM416.284 42.004C416.104 41.764 415.936 41.53 415.78 41.302C415.636 41.062 415.564 40.78 415.564 40.456C415.564 40.18 415.636 39.898 415.78 39.61C415.924 39.322 416.122 39.064 416.374 38.836C416.626 38.596 416.926 38.404 417.274 38.26C417.634 38.116 418.018 38.044 418.426 38.044C418.93 38.044 419.332 38.158 419.632 38.386C419.944 38.602 420.1 38.884 420.1 39.232C420.1 39.736 419.854 39.988 419.362 39.988C419.194 39.988 419.044 39.94 418.912 39.844C418.792 39.748 418.732 39.61 418.732 39.43C418.732 39.262 418.768 39.142 418.84 39.07C418.924 38.986 418.966 38.884 418.966 38.764C418.966 38.452 418.762 38.296 418.354 38.296C418.066 38.296 417.814 38.338 417.598 38.422C417.394 38.506 417.22 38.62 417.076 38.764C416.944 38.908 416.842 39.07 416.77 39.25C416.71 39.43 416.68 39.61 416.68 39.79C416.68 40.03 416.74 40.258 416.86 40.474C416.98 40.678 417.148 40.924 417.364 41.212L418.426 42.598C418.57 42.778 418.666 42.97 418.714 43.174C418.774 43.366 418.804 43.564 418.804 43.768C418.804 44.176 418.702 44.536 418.498 44.848C418.294 45.148 418.036 45.4 417.724 45.604C417.424 45.808 417.094 45.958 416.734 46.054C416.386 46.162 416.056 46.216 415.744 46.216C415.468 46.216 415.204 46.186 414.952 46.126C414.7 46.066 414.478 45.982 414.286 45.874C414.082 45.754 413.92 45.61 413.8 45.442C413.68 45.262 413.62 45.058 413.62 44.83C413.62 44.554 413.71 44.35 413.89 44.218C414.058 44.074 414.274 44.002 414.538 44.002C414.646 44.002 414.742 44.044 414.826 44.128C414.922 44.2 414.97 44.29 414.97 44.398C414.97 44.542 414.94 44.68 414.88 44.812C414.82 44.932 414.79 45.064 414.79 45.208C414.79 45.496 414.88 45.7 415.06 45.82C415.252 45.928 415.498 45.982 415.798 45.982C416.098 45.982 416.362 45.934 416.59 45.838C416.83 45.742 417.028 45.622 417.184 45.478C417.352 45.334 417.478 45.172 417.562 44.992C417.646 44.812 417.688 44.644 417.688 44.488C417.688 44.248 417.646 44.032 417.562 43.84C417.49 43.648 417.364 43.432 417.184 43.192L416.284 42.004ZM431.454 40.636C431.598 40.252 431.688 39.982 431.724 39.826C431.772 39.658 431.796 39.514 431.796 39.394C431.796 39.286 431.778 39.172 431.742 39.052C431.718 38.92 431.664 38.8 431.58 38.692C431.508 38.584 431.406 38.494 431.274 38.422C431.142 38.338 430.968 38.296 430.752 38.296C430.356 38.296 429.966 38.41 429.582 38.638C429.21 38.854 428.856 39.142 428.52 39.502C428.196 39.862 427.896 40.276 427.62 40.744C427.344 41.2 427.104 41.668 426.9 42.148C426.708 42.616 426.558 43.072 426.45 43.516C426.342 43.96 426.288 44.35 426.288 44.686C426.288 45.07 426.36 45.382 426.504 45.622C426.66 45.862 426.912 45.982 427.26 45.982C427.608 45.982 427.962 45.874 428.322 45.658C428.682 45.442 429.012 45.184 429.312 44.884C429.612 44.584 429.87 44.284 430.086 43.984C430.302 43.684 430.44 43.45 430.5 43.282L431.454 40.636ZM431.598 43.732C431.49 44.044 431.394 44.344 431.31 44.632C431.238 44.92 431.202 45.178 431.202 45.406C431.202 45.718 431.352 45.874 431.652 45.874C431.892 45.874 432.108 45.808 432.3 45.676C432.492 45.532 432.654 45.376 432.786 45.208C432.93 45.028 433.044 44.854 433.128 44.686C433.224 44.506 433.29 44.38 433.326 44.308L433.56 44.434C433.5 44.566 433.41 44.734 433.29 44.938C433.17 45.142 433.014 45.34 432.822 45.532C432.63 45.712 432.408 45.868 432.156 46C431.904 46.144 431.61 46.216 431.274 46.216C430.482 46.216 430.086 45.856 430.086 45.136C430.086 45.052 430.104 44.908 430.14 44.704C430.176 44.488 430.224 44.296 430.284 44.128H430.248C430.08 44.332 429.888 44.56 429.672 44.812C429.456 45.052 429.21 45.28 428.934 45.496C428.67 45.7 428.376 45.868 428.052 46C427.728 46.144 427.368 46.216 426.972 46.216C426.72 46.216 426.474 46.168 426.234 46.072C426.006 45.988 425.802 45.856 425.622 45.676C425.442 45.484 425.298 45.244 425.19 44.956C425.094 44.668 425.046 44.326 425.046 43.93C425.046 43.45 425.142 42.97 425.334 42.49C425.526 42.01 425.772 41.554 426.072 41.122C426.384 40.678 426.738 40.27 427.134 39.898C427.542 39.526 427.95 39.202 428.358 38.926C428.778 38.65 429.186 38.434 429.582 38.278C429.99 38.122 430.35 38.044 430.662 38.044C431.022 38.044 431.328 38.146 431.58 38.35C431.832 38.554 431.958 38.824 431.958 39.16H431.994L432.3 38.278H433.56L431.598 43.732ZM436.766 40.456C436.874 40.144 436.976 39.826 437.072 39.502C437.168 39.178 437.264 38.854 437.36 38.53H435.794L435.866 38.278H438.638C438.578 38.53 438.488 38.848 438.368 39.232C438.26 39.616 438.14 39.988 438.008 40.348L438.044 40.384C438.164 40.204 438.314 39.988 438.494 39.736C438.674 39.484 438.878 39.244 439.106 39.016C439.334 38.776 439.586 38.578 439.862 38.422C440.138 38.254 440.432 38.17 440.744 38.17C441.188 38.17 441.524 38.296 441.752 38.548C441.992 38.8 442.106 39.07 442.094 39.358C442.094 39.55 442.058 39.712 441.986 39.844C441.926 39.964 441.842 40.06 441.734 40.132C441.638 40.192 441.536 40.234 441.428 40.258C441.32 40.282 441.218 40.294 441.122 40.294C440.954 40.294 440.816 40.252 440.708 40.168C440.6 40.084 440.546 39.958 440.546 39.79C440.546 39.658 440.57 39.562 440.618 39.502C440.678 39.43 440.738 39.364 440.798 39.304C440.858 39.244 440.912 39.178 440.96 39.106C441.02 39.034 441.05 38.938 441.05 38.818C441.05 38.698 441.002 38.602 440.906 38.53C440.81 38.458 440.69 38.422 440.546 38.422C440.318 38.422 440.054 38.542 439.754 38.782C439.454 39.01 439.154 39.31 438.854 39.682C438.566 40.042 438.29 40.456 438.026 40.924C437.762 41.392 437.546 41.86 437.378 42.328L436.082 46H434.822L436.766 40.456ZM448.039 39.16C448.039 38.92 447.967 38.716 447.823 38.548C447.679 38.38 447.439 38.296 447.103 38.296C446.731 38.296 446.371 38.404 446.023 38.62C445.687 38.836 445.381 39.106 445.105 39.43C444.829 39.742 444.589 40.084 444.385 40.456C444.181 40.816 444.025 41.152 443.917 41.464C444.193 41.512 444.499 41.536 444.835 41.536C445.267 41.536 445.675 41.47 446.059 41.338C446.443 41.206 446.779 41.032 447.067 40.816C447.367 40.6 447.601 40.348 447.769 40.06C447.949 39.772 448.039 39.472 448.039 39.16ZM448.075 44.236C448.003 44.32 447.895 44.476 447.751 44.704C447.607 44.92 447.409 45.142 447.157 45.37C446.905 45.586 446.593 45.784 446.221 45.964C445.861 46.132 445.423 46.216 444.907 46.216C444.391 46.216 443.953 46.132 443.593 45.964C443.245 45.796 442.957 45.58 442.729 45.316C442.513 45.052 442.351 44.764 442.243 44.452C442.147 44.128 442.099 43.816 442.099 43.516C442.099 42.916 442.243 42.298 442.531 41.662C442.831 41.014 443.215 40.426 443.683 39.898C444.163 39.358 444.703 38.914 445.303 38.566C445.903 38.218 446.515 38.044 447.139 38.044C447.379 38.044 447.619 38.074 447.859 38.134C448.099 38.182 448.315 38.26 448.507 38.368C448.699 38.476 448.855 38.614 448.975 38.782C449.095 38.95 449.155 39.154 449.155 39.394C449.155 39.718 449.065 40.006 448.885 40.258C448.717 40.498 448.495 40.708 448.219 40.888C447.943 41.056 447.637 41.2 447.301 41.32C446.977 41.44 446.659 41.536 446.347 41.608C446.035 41.668 445.747 41.716 445.483 41.752C445.231 41.776 445.045 41.788 444.925 41.788C444.721 41.788 444.523 41.782 444.331 41.77C444.139 41.758 443.971 41.74 443.827 41.716C443.695 42.1 443.581 42.484 443.485 42.868C443.401 43.24 443.359 43.636 443.359 44.056C443.359 44.704 443.527 45.19 443.863 45.514C444.199 45.826 444.625 45.982 445.141 45.982C445.525 45.982 445.861 45.91 446.149 45.766C446.449 45.61 446.707 45.43 446.923 45.226C447.151 45.022 447.337 44.818 447.481 44.614C447.637 44.398 447.763 44.23 447.859 44.11L448.075 44.236Z" fill="#FFCEDE"/>
<path d="M1592.38 46H1590.09L1595.17 31.8594H1597.65L1602.75 46H1600.46L1599.17 42.2695H1593.66L1592.38 46ZM1594.28 40.4727H1598.55L1596.46 34.4375H1596.36L1594.28 40.4727ZM1604.32 46V31.8594H1609.5C1612.52 31.8594 1613.97 33.4707 1613.97 35.5703C1613.97 37.3379 1612.89 38.2266 1611.59 38.5586V38.6953C1612.99 38.7734 1614.52 40.0039 1614.52 42.1914C1614.52 44.3594 1613.03 46 1609.73 46H1604.32ZM1606.47 44.1641H1609.54C1611.57 44.1543 1612.39 43.2656 1612.39 42.0938C1612.39 40.7363 1611.32 39.6523 1609.62 39.6523H1606.47V44.1641ZM1606.47 37.9727H1609.32C1610.75 37.9629 1611.86 37.1035 1611.86 35.7461C1611.86 34.5742 1611.05 33.6953 1609.36 33.6953H1606.47V37.9727ZM1628.89 38.9297C1628.89 43.4512 1626.17 46.1953 1622.52 46.1953C1618.84 46.1953 1616.13 43.4414 1616.13 38.9297C1616.13 34.4082 1618.84 31.6641 1622.52 31.6641C1626.17 31.6641 1628.89 34.4082 1628.89 38.9297ZM1618.26 38.9297C1618.27 42.3672 1620.08 44.2324 1622.52 44.2227C1624.94 44.2324 1626.75 42.3672 1626.76 38.9297C1626.75 35.4922 1624.94 33.627 1622.52 33.6367C1620.08 33.627 1618.27 35.4922 1618.26 38.9297ZM1640.17 31.8594H1642.32V41.1562C1642.33 44.125 1640.09 46.2344 1636.72 46.2344C1633.31 46.2344 1631.08 44.125 1631.09 41.1562V31.8594H1633.24V40.9805C1633.23 42.8945 1634.57 44.2715 1636.72 44.2812C1638.85 44.2715 1640.17 42.8945 1640.17 40.9805V31.8594ZM1644.29 33.7148V31.8594H1655.24V33.7148H1650.85V46H1648.7V33.7148H1644.29Z" fill="#FB9EBC"/>
<path d="M1682.96 46L1679.03 31.8594H1681.3L1684.05 42.7969H1684.17L1687.04 31.8594H1689.27L1692.14 42.7969H1692.25L1695.01 31.8594H1697.27L1693.35 46H1691.18L1688.21 35.4336H1688.09L1685.12 46H1682.96ZM1710.37 38.9297C1710.37 43.4512 1707.66 46.1953 1704.01 46.1953C1700.32 46.1953 1697.62 43.4414 1697.62 38.9297C1697.62 34.4082 1700.32 31.6641 1704.01 31.6641C1707.66 31.6641 1710.37 34.4082 1710.37 38.9297ZM1699.75 38.9297C1699.76 42.3672 1701.57 44.2324 1704.01 44.2227C1706.43 44.2324 1708.24 42.3672 1708.24 38.9297C1708.24 35.4922 1706.43 33.627 1704.01 33.6367C1701.57 33.627 1699.76 35.4922 1699.75 38.9297ZM1712.58 46V31.8594H1717.61C1720.91 31.8594 1722.52 33.6855 1722.52 36.293C1722.52 38.1973 1721.66 39.6328 1719.94 40.2871L1723.06 46H1720.62L1717.75 40.668H1717.61H1714.72V46H1712.58ZM1714.72 38.8125H1717.4C1719.48 38.8027 1720.35 37.8848 1720.35 36.293C1720.35 34.7012 1719.48 33.7051 1717.4 33.6953H1714.72V38.8125ZM1724.68 46V31.8594H1726.83V38.5977H1727L1732.92 31.8594H1735.62L1729.91 38.2266L1735.64 46H1733.04L1728.49 39.6914L1726.83 41.6055V46H1724.68Z" fill="#FB9EBC"/>
<path d="M1765.56 27.1982H1775.48C1779.25 27.1982 1782.32 30.2666 1782.32 34.0431V43.9564C1782.32 45.7718 1781.6 47.5128 1780.32 48.7965C1779.03 50.0801 1777.29 50.8013 1775.48 50.8013H1765.56C1761.79 50.8013 1758.72 47.7329 1758.72 43.9564V34.0431C1758.72 32.2277 1759.44 30.4867 1760.72 29.2031C1762.01 27.9194 1763.75 27.1982 1765.56 27.1982ZM1765.33 29.5585C1764.2 29.5585 1763.12 30.0062 1762.32 30.8029C1761.53 31.5997 1761.08 32.6803 1761.08 33.8071V44.1924C1761.08 46.5409 1762.98 48.441 1765.33 48.441H1775.71C1776.84 48.441 1777.92 47.9934 1778.72 47.1966C1779.51 46.3998 1779.96 45.3192 1779.96 44.1924V33.8071C1779.96 31.4586 1778.06 29.5585 1775.71 29.5585H1765.33ZM1776.72 31.3288C1777.11 31.3288 1777.48 31.4842 1777.76 31.7608C1778.04 32.0375 1778.19 32.4127 1778.19 32.804C1778.19 33.1952 1778.04 33.5704 1777.76 33.8471C1777.48 34.1237 1777.11 34.2792 1776.72 34.2792C1776.32 34.2792 1775.95 34.1237 1775.67 33.8471C1775.4 33.5704 1775.24 33.1952 1775.24 32.804C1775.24 32.4127 1775.4 32.0375 1775.67 31.7608C1775.95 31.4842 1776.32 31.3288 1776.72 31.3288ZM1770.52 33.099C1772.09 33.099 1773.59 33.7207 1774.69 34.8273C1775.8 35.9339 1776.42 37.4348 1776.42 38.9998C1776.42 40.5647 1775.8 42.0656 1774.69 43.1722C1773.59 44.2788 1772.09 44.9005 1770.52 44.9005C1768.96 44.9005 1767.45 44.2788 1766.35 43.1722C1765.24 42.0656 1764.62 40.5647 1764.62 38.9998C1764.62 37.4348 1765.24 35.9339 1766.35 34.8273C1767.45 33.7207 1768.96 33.099 1770.52 33.099ZM1770.52 35.4593C1769.58 35.4593 1768.68 35.8323 1768.02 36.4963C1767.35 37.1602 1766.98 38.0608 1766.98 38.9998C1766.98 39.9387 1767.35 40.8393 1768.02 41.5032C1768.68 42.1672 1769.58 42.5402 1770.52 42.5402C1771.46 42.5402 1772.36 42.1672 1773.02 41.5032C1773.69 40.8393 1774.06 39.9387 1774.06 38.9998C1774.06 38.0608 1773.69 37.1602 1773.02 36.4963C1772.36 35.8323 1771.46 35.4593 1770.52 35.4593Z" fill="#FB9EBC"/>
</svg>
