<svg xmlns="http://www.w3.org/2000/svg" width="1954" height="72" fill="none"><path fill="#000" d="M0 0h1953.32v72H0z"/><path fill="#FB9EBC" stroke="#000" stroke-width=".5" d="m190.709 29.918.144-.205h-.001l-.004-.003-.014-.01-.052-.035a11.078 11.078 0 0 0-.911-.534 11 11 0 0 0-2.42-.934c-3.52-.866-7.719.675-10.442 3.057-1.735 1.518-2.797 2.91-3.427 3.93a10 10 0 0 0-.703 1.339 8.456 8.456 0 0 1-1.555-1.81c-.819-1.295-1.453-3.136-.744-5.375.717-2.263 2.076-3.648 3.706-4.39 1.639-.746 3.571-.852 5.431-.515 3.01.545 7.239 2.017 9.98 2.972.691.24 1.288.448 1.746.6 1.14.377 2.143.63 3.336.704 1.136.07 2.434-.025 4.178-.32q.01.119.009.29a5.2 5.2 0 0 1-.235 1.459c-.367 1.206-1.281 2.834-3.496 4.446-2.241 1.63-4.608 2.9-6.608 3.901q-.752.375-1.422.702l-.051.025q-.642.314-1.188.586c-.748.377-1.361.707-1.755.997-.25.185-.518.364-.798.551q-.202.135-.411.277c-.426.29-.863.606-1.263.974-.804.74-1.458 1.694-1.58 3.08-.141 1.592.619 2.645 1.685 3.245 1.05.59 2.395.745 3.483.591.74-.105 1.405-.356 1.849-.898.444-.544.626-1.332.509-2.42q-.051-.47-.103-.892c-.054-.455-.105-.874-.136-1.275-.051-.643-.051-1.209.056-1.741.211-1.046.846-2.019 2.486-3.176 1.593-1.125 3.471-1.202 5.113-.668 1.649.535 3.023 1.675 3.605 2.928 1.19 2.561.786 6.779-2.343 9.443-1.597 1.36-2.845 2.124-4.216 2.531-1.376.408-2.898.463-5.06.36-2.103-.1-3.999-1.223-5.893-2.497q-.384-.26-.77-.523c-1.618-1.107-3.257-2.226-4.99-2.704-1.93-.532-3.307-.483-4.212-.29-.427.09-.747.211-.969.317l-.003-.328a13 13 0 0 1 .139-1.848c.215-1.484.743-3.321 1.98-4.794 2.54-3.023 5.729-5.593 8.964-6.947.47-.197 2.838-1.182 5.089-2.119l3.035-1.263.98-.407.272-.114.072-.03.018-.007.005-.002h.001zm0 0 .144-.205.37.262-.418.173zM224.281 29.918l.096.23-.001.001-.005.002-.018.008-.072.03-.272.113-.979.407-3.036 1.263-5.089 2.119c-3.234 1.354-6.424 3.923-8.964 6.947-1.237 1.473-1.765 3.31-1.98 4.794a13.3 13.3 0 0 0-.136 2.176c.222-.106.542-.227.969-.318.906-.192 2.282-.24 4.213.291 1.732.478 3.371 1.597 4.99 2.704l.769.523c1.895 1.274 3.79 2.397 5.893 2.497 2.163.103 3.685.048 5.06-.36 1.372-.407 2.62-1.172 4.216-2.531 3.13-2.664 3.533-6.882 2.343-9.443-.581-1.254-1.956-2.393-3.605-2.928-1.641-.534-3.52-.457-5.113.668-1.639 1.157-2.275 2.13-2.485 3.176-.107.532-.108 1.098-.057 1.741.032.401.082.82.136 1.275q.051.422.103.892c.117 1.088-.064 1.876-.509 2.42-.443.542-1.109.793-1.849.898-1.088.154-2.433 0-3.482-.59-1.067-.601-1.827-1.654-1.686-3.245.123-1.387.777-2.34 1.581-3.081.399-.368.836-.684 1.262-.974l.411-.277c.281-.187.548-.366.798-.55.394-.291 1.007-.621 1.756-.998.362-.182.761-.377 1.187-.586l.051-.025q.671-.326 1.423-.702c1.999-1.002 4.366-2.271 6.607-3.901 2.216-1.612 3.13-3.24 3.497-4.446.184-.606.232-1.11.234-1.459a4 4 0 0 0-.008-.29c-1.745.295-3.043.39-4.178.32-1.194-.073-2.197-.327-3.336-.704a128 128 0 0 1-1.747-.6c-2.741-.955-6.969-2.427-9.979-2.972-1.861-.337-3.793-.231-5.431.515-1.631.742-2.99 2.127-3.707 4.39-.708 2.239-.075 4.08.745 5.374a8.5 8.5 0 0 0 1.554 1.81l.054-.124c.128-.29.335-.706.65-1.215.629-1.019 1.691-2.411 3.426-3.93 2.724-2.381 6.922-3.922 10.442-3.056.966.237 1.815.616 2.421.934a11 11 0 0 1 .911.534l.051.035.014.01.004.002.001.001h.001zm0 0 .096.23.418-.173-.369-.262zM257.854 29.918l.096.23h-.001l-.001.001-.004.002-.019.008-.071.03-.273.113-.979.407-3.036 1.263c-2.25.937-4.618 1.922-5.088 2.119-3.235 1.354-6.425 3.923-8.964 6.947-1.238 1.473-1.765 3.31-1.981 4.794a13.5 13.5 0 0 0-.135 2.176c.222-.106.542-.227.968-.318.906-.192 2.283-.24 4.213.291 1.733.478 3.371 1.597 4.99 2.704q.385.263.77.523c1.894 1.274 3.789 2.397 5.893 2.497 2.162.103 3.684.048 5.06-.36 1.371-.407 2.619-1.172 4.216-2.531 3.129-2.664 3.532-6.882 2.343-9.443-.582-1.254-1.956-2.393-3.605-2.928-1.642-.534-3.52-.457-5.113.668-1.64 1.157-2.275 2.13-2.486 3.176-.107.532-.108 1.098-.057 1.741.032.401.082.82.137 1.275q.051.422.102.892c.117 1.088-.064 1.876-.509 2.42-.443.542-1.108.793-1.848.898-1.089.154-2.433 0-3.483-.59-1.067-.601-1.827-1.654-1.686-3.245.123-1.387.777-2.34 1.581-3.081a11 11 0 0 1 1.262-.974l.411-.277c.281-.187.548-.366.799-.55.394-.291 1.006-.621 1.755-.998.362-.182.761-.377 1.188-.586l.05-.025c.446-.218.923-.451 1.423-.702 2-1.002 4.366-2.271 6.607-3.901 2.216-1.612 3.13-3.24 3.497-4.446a5.2 5.2 0 0 0 .235-1.459q0-.171-.009-.29c-1.744.295-3.042.39-4.178.32-1.194-.073-2.197-.327-3.336-.704a128 128 0 0 1-1.747-.6c-2.741-.955-6.969-2.427-9.979-2.972-1.861-.337-3.793-.231-5.431.515-1.631.742-2.99 2.127-3.706 4.39-.709 2.239-.076 4.08.744 5.374a8.5 8.5 0 0 0 1.555 1.81l.053-.124c.129-.29.335-.706.65-1.215.629-1.019 1.691-2.411 3.427-3.93 2.723-2.381 6.921-3.922 10.441-3.056.966.237 1.815.616 2.421.934a11 11 0 0 1 .911.534l.052.035.013.01.004.002.001.001h.001zm0 0 .096.23.418-.173-.37-.262z"/><path fill="#FFCEDE" d="M276.663 38.926q0-.36.234-.594a.83.83 0 0 1 .612-.252q.36 0 .594.252a.78.78 0 0 1 .252.594.833.833 0 0 1-.846.846.87.87 0 0 1-.612-.234.87.87 0 0 1-.234-.612m-1.728 6.462q0-.36.234-.594a.83.83 0 0 1 .612-.252q.36 0 .594.252a.78.78 0 0 1 .252.594q0 .36-.252.594a.8.8 0 0 1-.594.234.87.87 0 0 1-.612-.234.8.8 0 0 1-.234-.594m9.936-11.952h-1.98l.072-.252h5.292l-.072.252h-1.746l-.108 10.602h.036L291.063 37l.036-3.564h-1.89l.072-.252h5.454l-.072.252h-2.016l-.108 10.476h.036l7.002-10.476h-1.728l.072-.252h3.69l-.072.252h-1.602l-8.604 12.798h-.36l.072-8.676h-.036l-5.832 8.676h-.45zm20.054-.864h-1.638l.072-.252h2.844l-3.006 8.154h.036q.27-.36.63-.756.36-.414.792-.756t.9-.558q.486-.234.972-.234.756 0 1.188.414.45.396.45.99 0 .306-.108.612-.09.288-.234.702l-1.17 3.33q-.108.306-.198.612-.09.288-.09.576 0 .216.09.396t.378.18q.324 0 .594-.18t.486-.432q.234-.252.396-.522.162-.288.252-.486l.198.09q-.09.18-.252.486a3 3 0 0 1-.432.576 2.2 2.2 0 0 1-.63.486 1.8 1.8 0 0 1-.9.216q-.576 0-.972-.252t-.396-.828q0-.234.054-.486.072-.252.162-.54l1.512-4.302q.144-.432.144-.72a.74.74 0 0 0-.162-.45q-.144-.216-.54-.216t-.918.306a4.7 4.7 0 0 0-1.044.81 7.3 7.3 0 0 0-.99 1.206 7 7 0 0 0-.738 1.494L301.307 46h-1.242zm10.838 6.588a.9.9 0 0 0-.216-.612q-.216-.252-.72-.252-.558 0-1.08.324a4.2 4.2 0 0 0-.918.81 5.6 5.6 0 0 0-.72 1.026 6 6 0 0 0-.468 1.008q.414.072.918.072.648 0 1.224-.198t1.008-.522q.45-.324.702-.756.27-.432.27-.9m.036 5.076q-.108.126-.324.468a3.7 3.7 0 0 1-.594.666 4.3 4.3 0 0 1-.936.594q-.54.252-1.314.252t-1.314-.252a2.6 2.6 0 0 1-.864-.648 2.8 2.8 0 0 1-.486-.864 3.3 3.3 0 0 1-.144-.936q0-.9.432-1.854.45-.972 1.152-1.764.72-.81 1.62-1.332t1.836-.522q.36 0 .72.09.36.072.648.234t.468.414.18.612q0 .486-.27.864-.252.36-.666.63a5 5 0 0 1-.918.432q-.486.18-.954.288-.468.09-.864.144a7 7 0 0 1-.558.036q-.306 0-.594-.018a5 5 0 0 1-.504-.054q-.198.576-.342 1.152a5.4 5.4 0 0 0-.126 1.188q0 .972.504 1.458.504.468 1.278.468.576 0 1.008-.216.45-.234.774-.54.342-.306.558-.612.234-.324.378-.504zm3.686-3.78q.162-.468.306-.954l.288-.972h-1.566l.072-.252h2.772q-.09.378-.27.954-.162.576-.36 1.116l.036.036q.18-.27.45-.648a6 6 0 0 1 .612-.72q.342-.36.756-.594.414-.252.882-.252.666 0 1.008.378.36.378.342.81 0 .288-.108.486a.73.73 0 0 1-.252.288 1 1 0 0 1-.306.126q-.162.036-.306.036a.65.65 0 0 1-.414-.126q-.162-.126-.162-.378 0-.198.072-.288.09-.108.18-.198t.162-.198a.44.44 0 0 0 .09-.288.34.34 0 0 0-.144-.288.6.6 0 0 0-.36-.108q-.342 0-.792.36-.45.342-.9.9a9.3 9.3 0 0 0-.828 1.242q-.396.702-.648 1.404L318.801 46h-1.26zm11.272-1.296a.9.9 0 0 0-.216-.612q-.216-.252-.72-.252-.558 0-1.08.324a4.2 4.2 0 0 0-.918.81 5.6 5.6 0 0 0-.72 1.026 6 6 0 0 0-.468 1.008q.414.072.918.072.648 0 1.224-.198t1.008-.522q.45-.324.702-.756.27-.432.27-.9m.036 5.076q-.108.126-.324.468a3.7 3.7 0 0 1-.594.666 4.3 4.3 0 0 1-.936.594q-.54.252-1.314.252t-1.314-.252a2.6 2.6 0 0 1-.864-.648 2.8 2.8 0 0 1-.486-.864 3.3 3.3 0 0 1-.144-.936q0-.9.432-1.854.45-.972 1.152-1.764.72-.81 1.62-1.332t1.836-.522q.36 0 .72.09.36.072.648.234t.468.414.18.612q0 .486-.27.864-.252.36-.666.63a5 5 0 0 1-.918.432q-.486.18-.954.288-.468.09-.864.144a7 7 0 0 1-.558.036q-.306 0-.594-.018a5 5 0 0 1-.504-.054q-.198.576-.342 1.152a5.4 5.4 0 0 0-.126 1.188q0 .972.504 1.458.504.468 1.278.468.576 0 1.008-.216.45-.234.774-.54.342-.306.558-.612.234-.324.378-.504zm7.165-.054q0 .918.432 1.368.45.432 1.134.432.558 0 1.044-.324t.882-.846q.396-.54.702-1.188t.504-1.296a9 9 0 0 0 .324-1.224q.108-.576.108-.936 0-.864-.378-1.368-.36-.504-1.278-.504a1.8 1.8 0 0 0-.99.306 3.6 3.6 0 0 0-.864.81 6.3 6.3 0 0 0-.684 1.116q-.306.63-.522 1.296a10 10 0 0 0-.306 1.278 6.3 6.3 0 0 0-.108 1.08m-1.188-1.008q0-1.08.45-2.016.45-.954 1.134-1.638a5.6 5.6 0 0 1 1.548-1.08q.846-.396 1.62-.396.702 0 1.224.288t.864.738.504.99.162 1.044q0 1.044-.45 1.98a6.2 6.2 0 0 1-1.134 1.62q-.684.702-1.53 1.116-.828.396-1.584.396-.648 0-1.17-.252a3 3 0 0 1-.882-.666 3 3 0 0 1-.558-.954 3.5 3.5 0 0 1-.198-1.17m9.494-4.896h2.898l-2.07 5.94a5.5 5.5 0 0 0-.216.684 2 2 0 0 0-.072.432.8.8 0 0 0 .126.45q.144.198.468.198.486 0 1.044-.36.576-.378 1.116-.954t.99-1.278q.45-.72.702-1.422l1.278-3.69h1.26l-2.124 6.102q-.09.27-.18.558-.09.27-.09.522 0 .216.126.378.126.144.378.144a.96.96 0 0 0 .576-.198q.288-.198.504-.45.234-.27.396-.54t.234-.432l.216.09q-.072.144-.234.45-.144.288-.414.594-.27.288-.666.504a1.9 1.9 0 0 1-.936.216q-.594 0-.954-.234-.342-.252-.342-.828 0-.306.072-.576.072-.288.216-.648l-.036-.036q-.252.324-.612.738-.342.396-.756.756a4.8 4.8 0 0 1-.864.594q-.45.234-.936.234-.774 0-1.224-.36t-.45-1.044q0-.27.126-.63.126-.378.216-.666l1.764-4.986h-1.602zm10.54 2.178q.162-.468.306-.954l.288-.972h-1.566l.072-.252h2.772q-.09.378-.27.954-.162.576-.36 1.116l.036.036q.18-.27.45-.648a6 6 0 0 1 .612-.72q.342-.36.756-.594.414-.252.882-.252.666 0 1.008.378.36.378.342.81 0 .288-.108.486a.73.73 0 0 1-.252.288 1 1 0 0 1-.306.126q-.162.036-.306.036a.65.65 0 0 1-.414-.126q-.162-.126-.162-.378 0-.198.072-.288.09-.108.18-.198t.162-.198a.44.44 0 0 0 .09-.288.34.34 0 0 0-.144-.288.6.6 0 0 0-.36-.108q-.342 0-.792.36-.45.342-.9.9a9.3 9.3 0 0 0-.828 1.242q-.396.702-.648 1.404L356.12 46h-1.26zm16.01.18q.216-.576.27-.81.072-.252.072-.432a1.2 1.2 0 0 0-.054-.342.8.8 0 0 0-.162-.36.84.84 0 0 0-.306-.27q-.198-.126-.522-.126-.594 0-1.17.342a4.7 4.7 0 0 0-1.062.864q-.486.54-.9 1.242-.414.684-.72 1.404a9.6 9.6 0 0 0-.45 1.368 5 5 0 0 0-.162 1.17q0 .576.216.936.234.36.756.36t1.062-.324.99-.774.774-.9.414-.702zm.144 3.096q-.162.468-.288.9a3.2 3.2 0 0 0-.108.774q0 .468.45.468.36 0 .648-.198.288-.216.486-.468.216-.27.342-.522.144-.27.198-.378l.234.126q-.09.198-.27.504t-.468.594q-.288.27-.666.468a1.75 1.75 0 0 1-.882.216q-1.188 0-1.188-1.08 0-.126.054-.432.054-.324.144-.576h-.036q-.252.306-.576.684-.324.36-.738.684a3.7 3.7 0 0 1-.882.504 2.6 2.6 0 0 1-1.08.216 2 2 0 0 1-.738-.144 1.7 1.7 0 0 1-.612-.396 2.1 2.1 0 0 1-.432-.72 3.3 3.3 0 0 1-.144-1.026q0-.72.288-1.44t.738-1.368a8 8 0 0 1 1.062-1.224q.612-.558 1.224-.972.63-.414 1.224-.648.612-.234 1.08-.234.54 0 .918.306a.99.99 0 0 1 .378.81h.036l2.34-6.588h-1.584l.072-.252h2.862zm5.168-3.276q.162-.468.306-.954l.288-.972h-1.566l.072-.252h2.772q-.09.378-.27.954-.162.576-.36 1.116l.036.036q.18-.27.45-.648a6 6 0 0 1 .612-.72q.342-.36.756-.594.414-.252.882-.252.666 0 1.008.378.36.378.342.81 0 .288-.108.486a.73.73 0 0 1-.252.288 1 1 0 0 1-.306.126q-.162.036-.306.036a.65.65 0 0 1-.414-.126q-.162-.126-.162-.378 0-.198.072-.288.09-.108.18-.198t.162-.198a.44.44 0 0 0 .09-.288.34.34 0 0 0-.144-.288.6.6 0 0 0-.36-.108q-.342 0-.792.36-.45.342-.9.9a9.3 9.3 0 0 0-.828 1.242q-.396.702-.648 1.404L377.442 46h-1.26zm11.272-1.296a.9.9 0 0 0-.216-.612q-.216-.252-.72-.252-.558 0-1.08.324a4.2 4.2 0 0 0-.918.81 5.6 5.6 0 0 0-.72 1.026 6 6 0 0 0-.468 1.008q.414.072.918.072.648 0 1.224-.198t1.008-.522q.45-.324.702-.756.27-.432.27-.9m.036 5.076q-.108.126-.324.468a3.7 3.7 0 0 1-.594.666 4.3 4.3 0 0 1-.936.594q-.54.252-1.314.252t-1.314-.252a2.6 2.6 0 0 1-.864-.648 2.8 2.8 0 0 1-.486-.864 3.3 3.3 0 0 1-.144-.936q0-.9.432-1.854.45-.972 1.152-1.764.72-.81 1.62-1.332t1.836-.522q.36 0 .72.09.36.072.648.234t.468.414.18.612q0 .486-.27.864-.252.36-.666.63a5 5 0 0 1-.918.432q-.486.18-.954.288-.468.09-.864.144a7 7 0 0 1-.558.036q-.306 0-.594-.018a5 5 0 0 1-.504-.054q-.198.576-.342 1.152a5.4 5.4 0 0 0-.126 1.188q0 .972.504 1.458.504.468 1.278.468.576 0 1.008-.216.45-.234.774-.54.342-.306.558-.612.234-.324.378-.504zm8.042-3.6q.216-.576.27-.81.072-.252.072-.432a1.2 1.2 0 0 0-.054-.342.8.8 0 0 0-.162-.36.84.84 0 0 0-.306-.27q-.198-.126-.522-.126-.594 0-1.17.342a4.7 4.7 0 0 0-1.062.864q-.486.54-.9 1.242-.414.684-.72 1.404a9.6 9.6 0 0 0-.45 1.368 5 5 0 0 0-.162 1.17q0 .576.216.936.234.36.756.36t1.062-.324.99-.774.774-.9.414-.702zm.144 3.096q-.162.468-.288.9a3.2 3.2 0 0 0-.108.774q0 .468.45.468.36 0 .648-.198.288-.216.486-.468.216-.27.342-.522.144-.27.198-.378l.234.126q-.09.198-.27.504t-.468.594q-.288.27-.666.468a1.75 1.75 0 0 1-.882.216q-1.188 0-1.188-1.08 0-.126.054-.432.054-.324.144-.576h-.036q-.252.306-.576.684-.324.36-.738.684a3.7 3.7 0 0 1-.882.504 2.6 2.6 0 0 1-1.08.216 2 2 0 0 1-.738-.144 1.7 1.7 0 0 1-.612-.396 2.1 2.1 0 0 1-.432-.72 3.3 3.3 0 0 1-.144-1.026q0-.72.288-1.44t.738-1.368a8 8 0 0 1 1.062-1.224q.612-.558 1.224-.972.63-.414 1.224-.648.612-.234 1.08-.234.54 0 .918.306a.99.99 0 0 1 .378.81h.036l.306-.882h1.26zm5.618-5.202H401.6l.072-.252h2.844l-.684 2.052h.036q.216-.306.54-.684a6 6 0 0 1 .756-.702 4.5 4.5 0 0 1 .882-.54q.468-.234.936-.234.684 0 1.044.414.378.396.378.99 0 .324-.09.684h.036a7 7 0 0 1 1.17-1.314q.396-.324.846-.54.45-.234.9-.234.756 0 1.188.414.45.396.45.99 0 .306-.108.612-.09.288-.234.702l-1.17 3.33q-.108.306-.198.648t-.09.612q0 .162.09.342.09.162.378.162.324 0 .594-.18t.486-.432.378-.522q.162-.288.27-.486l.198.09q-.09.18-.252.486a3 3 0 0 1-.432.576 2.2 2.2 0 0 1-.63.486 1.8 1.8 0 0 1-.9.216q-.576 0-.972-.252t-.396-.828q0-.234.036-.45t.18-.576l1.512-4.302q.144-.432.144-.72 0-.306-.144-.486t-.558-.18q-.378 0-.864.306-.468.306-.954.828a8.5 8.5 0 0 0-.9 1.224 8 8 0 0 0-.72 1.458L406.298 46h-1.26l2.106-5.814q.252-.756.252-1.044 0-.324-.126-.522t-.45-.198-.81.252q-.468.234-.972.72a6.8 6.8 0 0 0-.99 1.188 7.6 7.6 0 0 0-.81 1.656L401.888 46h-1.242zm13.046 3.474q-.27-.36-.504-.702a1.6 1.6 0 0 1-.216-.846q0-.414.216-.846t.594-.774q.378-.36.9-.576.54-.216 1.152-.216.756 0 1.206.342.468.324.468.846 0 .756-.738.756a.75.75 0 0 1-.45-.144.5.5 0 0 1-.18-.414q0-.252.108-.36a.42.42 0 0 0 .126-.306q0-.468-.612-.468-.432 0-.756.126a1.6 1.6 0 0 0-.522.342 1.6 1.6 0 0 0-.306.486q-.09.27-.09.54 0 .36.18.684.18.306.504.738l1.062 1.386q.216.27.288.576.09.288.09.594 0 .612-.306 1.08-.306.45-.774.756-.45.306-.99.45a3.3 3.3 0 0 1-.99.162q-.414 0-.792-.09a2.6 2.6 0 0 1-.666-.252 1.55 1.55 0 0 1-.486-.432q-.18-.27-.18-.612 0-.414.27-.612.252-.216.648-.216.162 0 .288.126a.33.33 0 0 1 .144.27 1 1 0 0 1-.09.414.9.9 0 0 0-.09.396q0 .432.27.612.288.162.738.162t.792-.144q.36-.144.594-.36.252-.216.378-.486t.126-.504a1.6 1.6 0 0 0-.126-.648 2.7 2.7 0 0 0-.378-.648zm15.17-1.368q.216-.576.27-.81.072-.252.072-.432a1.2 1.2 0 0 0-.054-.342.8.8 0 0 0-.162-.36.84.84 0 0 0-.306-.27q-.198-.126-.522-.126-.594 0-1.17.342a4.7 4.7 0 0 0-1.062.864q-.486.54-.9 1.242-.414.684-.72 1.404a9.6 9.6 0 0 0-.45 1.368 5 5 0 0 0-.162 1.17q0 .576.216.936.234.36.756.36t1.062-.324.99-.774.774-.9.414-.702zm.144 3.096q-.162.468-.288.9a3.2 3.2 0 0 0-.108.774q0 .468.45.468.36 0 .648-.198.288-.216.486-.468.216-.27.342-.522.144-.27.198-.378l.234.126q-.09.198-.27.504t-.468.594q-.288.27-.666.468a1.75 1.75 0 0 1-.882.216q-1.188 0-1.188-1.08 0-.126.054-.432.054-.324.144-.576h-.036q-.252.306-.576.684-.324.36-.738.684a3.7 3.7 0 0 1-.882.504 2.6 2.6 0 0 1-1.08.216 2 2 0 0 1-.738-.144 1.7 1.7 0 0 1-.612-.396 2.1 2.1 0 0 1-.432-.72 3.3 3.3 0 0 1-.144-1.026q0-.72.288-1.44t.738-1.368a8 8 0 0 1 1.062-1.224q.612-.558 1.224-.972.63-.414 1.224-.648.612-.234 1.08-.234.54 0 .918.306a.99.99 0 0 1 .378.81h.036l.306-.882h1.26zm5.168-3.276q.162-.468.306-.954l.288-.972h-1.566l.072-.252h2.772q-.09.378-.27.954-.162.576-.36 1.116l.036.036q.18-.27.45-.648a6 6 0 0 1 .612-.72q.342-.36.756-.594.414-.252.882-.252.666 0 1.008.378.36.378.342.81 0 .288-.108.486a.73.73 0 0 1-.252.288 1 1 0 0 1-.306.126q-.162.036-.306.036a.65.65 0 0 1-.414-.126q-.162-.126-.162-.378 0-.198.072-.288.09-.108.18-.198t.162-.198a.44.44 0 0 0 .09-.288.34.34 0 0 0-.144-.288.6.6 0 0 0-.36-.108q-.342 0-.792.36-.45.342-.9.9a9.3 9.3 0 0 0-.828 1.242q-.396.702-.648 1.404L436.082 46h-1.26zm11.273-1.296a.9.9 0 0 0-.216-.612q-.216-.252-.72-.252-.558 0-1.08.324a4.2 4.2 0 0 0-.918.81 5.6 5.6 0 0 0-.72 1.026 6 6 0 0 0-.468 1.008q.414.072.918.072.648 0 1.224-.198t1.008-.522q.45-.324.702-.756.27-.432.27-.9m.036 5.076q-.108.126-.324.468a3.7 3.7 0 0 1-.594.666 4.3 4.3 0 0 1-.936.594q-.54.252-1.314.252t-1.314-.252a2.6 2.6 0 0 1-.864-.648 2.8 2.8 0 0 1-.486-.864 3.3 3.3 0 0 1-.144-.936q0-.9.432-1.854.45-.972 1.152-1.764.72-.81 1.62-1.332t1.836-.522q.36 0 .72.09.36.072.648.234t.468.414.18.612q0 .486-.27.864-.252.36-.666.63a5 5 0 0 1-.918.432q-.486.18-.954.288-.468.09-.864.144a7 7 0 0 1-.558.036q-.306 0-.594-.018a5 5 0 0 1-.504-.054q-.198.576-.342 1.152a5.4 5.4 0 0 0-.126 1.188q0 .972.504 1.458.504.468 1.278.468.576 0 1.008-.216.45-.234.774-.54.342-.306.558-.612.234-.324.378-.504z"/><path fill="#FB9EBC" d="M1592.38 46h-2.29l5.08-14.14h2.48l5.1 14.14h-2.29l-1.29-3.73h-5.51zm1.9-5.527h4.27l-2.09-6.035h-.1zM1604.32 46V31.86h5.18c3.02 0 4.47 1.61 4.47 3.71 0 1.768-1.08 2.657-2.38 2.989v.136c1.4.078 2.93 1.309 2.93 3.496 0 2.168-1.49 3.809-4.79 3.809zm2.15-1.836h3.07c2.03-.01 2.85-.898 2.85-2.07 0-1.358-1.07-2.442-2.77-2.442h-3.15zm0-6.191h2.85c1.43-.01 2.54-.87 2.54-2.227 0-1.172-.81-2.05-2.5-2.05h-2.89zm22.42.957c0 4.521-2.72 7.265-6.37 7.265-3.68 0-6.39-2.754-6.39-7.265 0-4.522 2.71-7.266 6.39-7.266 3.65 0 6.37 2.744 6.37 7.266m-10.63 0c.01 3.437 1.82 5.302 4.26 5.293 2.42.01 4.23-1.856 4.24-5.293-.01-3.438-1.82-5.303-4.24-5.293-2.44-.01-4.25 1.855-4.26 5.293m21.91-7.07h2.15v9.296c.01 2.969-2.23 5.078-5.6 5.078-3.41 0-5.64-2.109-5.63-5.078V31.86h2.15v9.121c-.01 1.915 1.33 3.292 3.48 3.301 2.13-.01 3.45-1.386 3.45-3.3zm4.12 1.855v-1.856h10.95v1.856h-4.39V46h-2.15V33.715zM1682.96 46l-3.93-14.14h2.27l2.75 10.937h.12l2.87-10.938h2.23l2.87 10.938h.11l2.76-10.938h2.26L1693.35 46h-2.17l-2.97-10.566h-.12L1685.12 46zm27.41-7.07c0 4.521-2.71 7.265-6.36 7.265-3.69 0-6.39-2.754-6.39-7.265 0-4.522 2.7-7.266 6.39-7.266 3.65 0 6.36 2.744 6.36 7.266m-10.62 0c.01 3.437 1.82 5.302 4.26 5.293 2.42.01 4.23-1.856 4.23-5.293s-1.81-5.303-4.23-5.293c-2.44-.01-4.25 1.855-4.26 5.293m12.83 7.07V31.86h5.03c3.3 0 4.91 1.825 4.91 4.433 0 1.904-.86 3.34-2.58 3.994l3.12 5.713h-2.44l-2.87-5.332h-3.0300000000000002V46zm2.14-7.187h2.68c2.08-.01 2.95-.928 2.95-2.52s-.87-2.588-2.95-2.598h-2.68zm9.96 7.187V31.86h2.15v6.738h.17l5.92-6.739h2.7l-5.71 6.368 5.73 7.773h-2.6l-4.55-6.309-1.66 1.914V46zM1765.56 27.198h9.92c3.77 0 6.84 3.069 6.84 6.845v9.913c0 1.816-.72 3.557-2 4.84a6.87 6.87 0 0 1-4.84 2.005h-9.92c-3.77 0-6.84-3.068-6.84-6.845v-9.913c0-1.815.72-3.556 2-4.84a6.87 6.87 0 0 1 4.84-2.005m-.23 2.36c-1.13 0-2.21.448-3.01 1.245a4.27 4.27 0 0 0-1.24 3.004v10.385c0 2.349 1.9 4.249 4.25 4.249h10.38c1.13 0 2.21-.448 3.01-1.244a4.27 4.27 0 0 0 1.24-3.005V33.807c0-2.348-1.9-4.249-4.25-4.249zm11.39 1.77c.39 0 .76.156 1.04.433s.43.652.43 1.043-.15.766-.43 1.043a1.476 1.476 0 1 1-1.04-2.518m-6.2 1.771c1.57 0 3.07.622 4.17 1.728a5.9 5.9 0 0 1 1.73 4.173c0 1.565-.62 3.066-1.73 4.172a5.88 5.88 0 0 1-4.17 1.729c-1.56 0-3.07-.622-4.17-1.729a5.9 5.9 0 0 1-1.73-4.172c0-1.565.62-3.066 1.73-4.173a5.9 5.9 0 0 1 4.17-1.728m0 2.36c-.94 0-1.84.373-2.5 1.037a3.52 3.52 0 0 0-1.04 2.504c0 .939.37 1.84 1.04 2.503a3.52 3.52 0 0 0 2.5 1.037c.94 0 1.84-.373 2.5-1.037a3.52 3.52 0 0 0 1.04-2.503c0-.94-.37-1.84-1.04-2.504a3.52 3.52 0 0 0-2.5-1.037"/></svg>