<svg xmlns="http://www.w3.org/2000/svg" width="282" height="30" fill="none"><path fill="#FB9EBC" stroke="#000" stroke-width=".5" d="m21.049 5.918.144-.205h-.001l-.004-.003-.014-.01-.052-.035-.195-.125a11 11 0 0 0-.716-.41 11 11 0 0 0-2.42-.933c-3.52-.866-7.719.675-10.442 3.057-1.735 1.518-2.797 2.91-3.427 3.93a10 10 0 0 0-.703 1.339 8.457 8.457 0 0 1-1.555-1.81C.844 9.417.211 7.576.92 5.337 1.637 3.075 2.996 1.69 4.626.948 6.265.202 8.196.096 10.057.433c3.01.545 7.238 2.017 9.98 2.972.69.24 1.287.449 1.746.6 1.14.377 2.142.63 3.336.704 1.136.07 2.434-.025 4.178-.32q.01.119.009.29c-.003.35-.05.853-.235 1.459-.367 1.206-1.28 2.834-3.497 4.446-2.24 1.63-4.607 2.9-6.607 3.901q-.752.375-1.422.702l-.051.025q-.642.314-1.188.587c-.749.376-1.361.706-1.755.996-.25.185-.518.364-.799.551l-.41.277c-.426.29-.863.606-1.263.974-.804.74-1.458 1.694-1.58 3.08-.141 1.592.619 2.645 1.685 3.245 1.05.59 2.394.745 3.483.591.74-.105 1.405-.356 1.848-.898.445-.544.626-1.332.51-2.42q-.052-.47-.103-.892c-.055-.455-.105-.874-.137-1.275-.05-.643-.05-1.209.057-1.741.211-1.046.846-2.019 2.486-3.176 1.593-1.125 3.471-1.202 5.113-.668 1.649.535 3.023 1.675 3.605 2.928 1.19 2.562.786 6.779-2.343 9.443-1.597 1.36-2.845 2.124-4.216 2.531-1.376.408-2.898.463-5.06.36-2.103-.1-3.999-1.223-5.893-2.497q-.384-.26-.77-.523c-1.619-1.107-3.257-2.226-4.99-2.704-1.93-.532-3.307-.483-4.213-.29-.426.09-.746.211-.968.317a13.43 13.43 0 0 1 .135-2.176c.216-1.484.744-3.321 1.981-4.794 2.54-3.024 5.73-5.593 8.964-6.947.47-.197 2.838-1.182 5.089-2.119l3.035-1.263.98-.407.272-.114.072-.03.018-.007.005-.002h.001zm0 0 .144-.205.37.262-.418.173zM54.621 5.918l.096.23-.001.001-.005.002-.018.008-.072.03-.272.113-.98.407-3.035 1.263c-2.25.937-4.619 1.922-5.089 2.119-3.235 1.354-6.424 3.924-8.964 6.947-1.237 1.473-1.765 3.31-1.98 4.794a13.4 13.4 0 0 0-.136 2.176c.222-.106.542-.227.969-.318.905-.192 2.282-.24 4.212.291 1.733.478 3.372 1.597 4.99 2.704l.77.523C47 28.482 48.896 29.605 51 29.705c2.162.103 3.685.048 5.06-.36 1.372-.407 2.62-1.172 4.216-2.531 3.13-2.664 3.533-6.881 2.343-9.443-.582-1.253-1.956-2.393-3.605-2.928-1.642-.534-3.52-.457-5.113.668-1.64 1.157-2.275 2.13-2.485 3.176-.108.532-.108 1.098-.057 1.741.032.401.082.82.136 1.275q.052.422.103.892c.117 1.088-.065 1.876-.51 2.42-.443.542-1.108.793-1.848.898-1.088.154-2.433 0-3.482-.59-1.067-.601-1.827-1.654-1.686-3.245.123-1.387.776-2.34 1.58-3.081.4-.368.837-.684 1.263-.974l.41-.277c.281-.187.549-.366.8-.55.393-.291 1.006-.621 1.754-.997.363-.183.762-.378 1.188-.587l.05-.025q.672-.326 1.423-.702c2-1.002 4.367-2.271 6.608-3.901 2.216-1.612 3.13-3.24 3.496-4.446.184-.606.232-1.11.235-1.459a4 4 0 0 0-.009-.29c-1.744.295-3.042.39-4.178.32-1.193-.073-2.196-.327-3.336-.704-.458-.151-1.055-.36-1.746-.6-2.741-.955-6.97-2.427-9.98-2.972-1.86-.337-3.792-.231-5.43.515-1.631.742-2.99 2.127-3.707 4.39-.709 2.239-.075 4.08.744 5.374a8.5 8.5 0 0 0 1.555 1.81l.054-.124c.128-.29.335-.706.65-1.215.629-1.019 1.69-2.411 3.426-3.93 2.724-2.381 6.922-3.922 10.442-3.056a11 11 0 0 1 2.42.934 11 11 0 0 1 .963.57l.014.009.004.002.001.001zm0 0 .096.23.418-.173-.37-.262zM88.194 5.918l.096.23-.002.001-.005.002-.018.008-.072.03-.272.113-.98.407-3.035 1.263-5.089 2.119c-3.234 1.354-6.424 3.924-8.963 6.947-1.238 1.473-1.766 3.31-1.981 4.794a13.4 13.4 0 0 0-.135 2.176c.222-.106.541-.227.968-.318.906-.192 2.282-.24 4.213.291 1.733.478 3.37 1.597 4.99 2.704q.385.263.77.523c1.894 1.274 3.79 2.397 5.892 2.497 2.163.103 3.685.048 5.06-.36 1.372-.407 2.62-1.172 4.216-2.531 3.13-2.664 3.533-6.881 2.344-9.443-.582-1.253-1.957-2.393-3.605-2.928-1.642-.534-3.52-.457-5.114.668-1.64 1.157-2.274 2.13-2.485 3.176-.107.532-.108 1.098-.057 1.741.032.401.082.82.136 1.275q.052.422.103.892c.117 1.088-.064 1.876-.51 2.42-.442.542-1.107.793-1.848.898-1.088.154-2.432 0-3.482-.59-1.067-.601-1.827-1.654-1.686-3.245.123-1.387.777-2.34 1.58-3.081.4-.368.838-.684 1.263-.974l.411-.277c.28-.187.548-.366.798-.55.394-.291 1.007-.621 1.756-.997.362-.183.761-.378 1.188-.587l.05-.025q.671-.326 1.423-.702c2-1.002 4.366-2.271 6.607-3.901 2.216-1.612 3.13-3.24 3.497-4.446.184-.606.232-1.11.234-1.459a4 4 0 0 0-.008-.29c-1.745.295-3.043.39-4.178.32-1.194-.073-2.197-.327-3.336-.704-.46-.151-1.056-.36-1.747-.6-2.741-.955-6.97-2.427-9.98-2.972-1.86-.337-3.792-.231-5.43.515-1.63.742-2.99 2.127-3.707 4.39-.708 2.239-.075 4.08.745 5.374a8.5 8.5 0 0 0 1.555 1.81l.053-.124c.129-.29.335-.706.65-1.215.63-1.019 1.691-2.411 3.426-3.93 2.724-2.381 6.922-3.922 10.442-3.056a11 11 0 0 1 2.42.934 11 11 0 0 1 .964.57l.013.009.004.002.001.001zm0 0 .096.23.417-.173-.37-.262z"/><path fill="#FFCEDE" d="M107.003 14.926q0-.36.234-.594a.83.83 0 0 1 .612-.252q.36 0 .594.252a.78.78 0 0 1 .252.594.833.833 0 0 1-.846.846.87.87 0 0 1-.612-.234.87.87 0 0 1-.234-.612m-1.728 6.462q0-.36.234-.594a.83.83 0 0 1 .612-.252q.36 0 .594.252a.78.78 0 0 1 .252.594q0 .36-.252.594a.8.8 0 0 1-.594.234.87.87 0 0 1-.612-.234.8.8 0 0 1-.234-.594m9.936-11.952h-1.98l.072-.252h5.292l-.072.252h-1.746l-.108 10.602h.036L121.403 13l.036-3.564h-1.89l.072-.252h5.454l-.072.252h-2.016l-.108 10.476h.036l7.002-10.476h-1.728l.072-.252h3.69l-.072.252h-1.602l-8.604 12.798h-.36l.072-8.676h-.036l-5.832 8.676h-.45zm20.054-.864h-1.638l.072-.252h2.844l-3.006 8.154h.036q.27-.36.63-.756.36-.414.792-.756t.9-.558q.486-.234.972-.234.756 0 1.188.414.45.396.45.99 0 .306-.108.612-.09.288-.234.702l-1.17 3.33q-.108.306-.198.612-.09.288-.09.576 0 .216.09.396t.378.18q.324 0 .594-.18t.486-.432q.234-.252.396-.522.162-.288.252-.486l.198.09q-.09.18-.252.486a3 3 0 0 1-.432.576 2.2 2.2 0 0 1-.63.486 1.8 1.8 0 0 1-.9.216q-.576 0-.972-.252t-.396-.828q0-.234.054-.486.072-.252.162-.54l1.512-4.302q.144-.432.144-.72a.74.74 0 0 0-.162-.45q-.144-.216-.54-.216t-.918.306a4.7 4.7 0 0 0-1.044.81 7.3 7.3 0 0 0-.99 1.206 7 7 0 0 0-.738 1.494L131.647 22h-1.242zm10.838 6.588a.9.9 0 0 0-.216-.612q-.216-.252-.72-.252-.558 0-1.08.324a4.2 4.2 0 0 0-.918.81 5.6 5.6 0 0 0-.72 1.026 6 6 0 0 0-.468 1.008q.414.072.918.072.648 0 1.224-.198t1.008-.522q.45-.324.702-.756.27-.432.27-.9m.036 5.076q-.108.126-.324.468a3.7 3.7 0 0 1-.594.666 4.3 4.3 0 0 1-.936.594q-.54.252-1.314.252t-1.314-.252a2.6 2.6 0 0 1-.864-.648 2.8 2.8 0 0 1-.486-.864 3.3 3.3 0 0 1-.144-.936q0-.9.432-1.854.45-.972 1.152-1.764.72-.81 1.62-1.332t1.836-.522q.36 0 .72.09.36.072.648.234t.468.414.18.612q0 .486-.27.864-.252.36-.666.63a5 5 0 0 1-.918.432q-.486.18-.954.288-.468.09-.864.144a7 7 0 0 1-.558.036q-.306 0-.594-.018a5 5 0 0 1-.504-.054q-.198.576-.342 1.152a5.4 5.4 0 0 0-.126 1.188q0 .972.504 1.458.504.468 1.278.468.576 0 1.008-.216.45-.234.774-.54.342-.306.558-.612.234-.324.378-.504zm3.686-3.78q.162-.468.306-.954l.288-.972h-1.566l.072-.252h2.772q-.09.378-.27.954-.162.576-.36 1.116l.036.036q.18-.27.45-.648a6 6 0 0 1 .612-.72q.342-.36.756-.594.414-.252.882-.252.666 0 1.008.378.36.378.342.81 0 .288-.108.486a.73.73 0 0 1-.252.288 1 1 0 0 1-.306.126q-.162.036-.306.036a.65.65 0 0 1-.414-.126q-.162-.126-.162-.378 0-.198.072-.288.09-.108.18-.198t.162-.198a.44.44 0 0 0 .09-.288.34.34 0 0 0-.144-.288.6.6 0 0 0-.36-.108q-.342 0-.792.36-.45.342-.9.9a9.3 9.3 0 0 0-.828 1.242q-.396.702-.648 1.404L149.141 22h-1.26zm11.272-1.296a.9.9 0 0 0-.216-.612q-.216-.252-.72-.252-.558 0-1.08.324a4.2 4.2 0 0 0-.918.81 5.6 5.6 0 0 0-.72 1.026 6 6 0 0 0-.468 1.008q.414.072.918.072.648 0 1.224-.198t1.008-.522q.45-.324.702-.756.27-.432.27-.9m.036 5.076q-.108.126-.324.468a3.7 3.7 0 0 1-.594.666 4.3 4.3 0 0 1-.936.594q-.54.252-1.314.252t-1.314-.252a2.6 2.6 0 0 1-.864-.648 2.8 2.8 0 0 1-.486-.864 3.3 3.3 0 0 1-.144-.936q0-.9.432-1.854.45-.972 1.152-1.764.72-.81 1.62-1.332t1.836-.522q.36 0 .72.09.36.072.648.234t.468.414.18.612q0 .486-.27.864-.252.36-.666.63a5 5 0 0 1-.918.432q-.486.18-.954.288-.468.09-.864.144a7 7 0 0 1-.558.036q-.306 0-.594-.018a5 5 0 0 1-.504-.054q-.198.576-.342 1.152a5.4 5.4 0 0 0-.126 1.188q0 .972.504 1.458.504.468 1.278.468.576 0 1.008-.216.45-.234.774-.54.342-.306.558-.612.234-.324.378-.504zm7.164-.054q0 .918.432 1.368.45.432 1.134.432.558 0 1.044-.324t.882-.846q.396-.54.702-1.188t.504-1.296a9 9 0 0 0 .324-1.224q.108-.576.108-.936 0-.864-.378-1.368-.36-.504-1.278-.504a1.8 1.8 0 0 0-.99.306 3.6 3.6 0 0 0-.864.81 6.3 6.3 0 0 0-.684 1.116q-.306.63-.522 1.296a10 10 0 0 0-.306 1.278 6.3 6.3 0 0 0-.108 1.08m-1.188-1.008q0-1.08.45-2.016.45-.954 1.134-1.638a5.6 5.6 0 0 1 1.548-1.08q.846-.396 1.62-.396.702 0 1.224.288t.864.738.504.99.162 1.044q0 1.044-.45 1.98a6.2 6.2 0 0 1-1.134 1.62q-.684.702-1.53 1.116-.828.396-1.584.396-.648 0-1.17-.252a3 3 0 0 1-.882-.666 3 3 0 0 1-.558-.954 3.5 3.5 0 0 1-.198-1.17m9.494-4.896h2.898l-2.07 5.94a5.5 5.5 0 0 0-.216.684 2 2 0 0 0-.072.432.8.8 0 0 0 .126.45q.144.198.468.198.486 0 1.044-.36.576-.378 1.116-.954t.99-1.278q.45-.72.702-1.422l1.278-3.69h1.26l-2.124 6.102q-.09.27-.18.558-.09.27-.09.522 0 .216.126.378.126.144.378.144a.96.96 0 0 0 .576-.198q.288-.198.504-.45.234-.27.396-.54t.234-.432l.216.09q-.072.144-.234.45-.144.288-.414.594-.27.288-.666.504a1.9 1.9 0 0 1-.936.216q-.594 0-.954-.234-.342-.252-.342-.828 0-.306.072-.576.072-.288.216-.648l-.036-.036q-.252.324-.612.738-.342.396-.756.756a4.8 4.8 0 0 1-.864.594q-.45.234-.936.234-.774 0-1.224-.36t-.45-1.044q0-.27.126-.63.126-.378.216-.666l1.764-4.986h-1.602zm10.54 2.178q.162-.468.306-.954l.288-.972h-1.566l.072-.252h2.772q-.09.378-.27.954-.162.576-.36 1.116l.036.036q.18-.27.45-.648a6 6 0 0 1 .612-.72q.342-.36.756-.594.414-.252.882-.252.666 0 1.008.378.36.378.342.81 0 .288-.108.486a.73.73 0 0 1-.252.288 1 1 0 0 1-.306.126q-.162.036-.306.036a.65.65 0 0 1-.414-.126q-.162-.126-.162-.378 0-.198.072-.288.09-.108.18-.198t.162-.198a.44.44 0 0 0 .09-.288.34.34 0 0 0-.144-.288.6.6 0 0 0-.36-.108q-.342 0-.792.36-.45.342-.9.9a9.3 9.3 0 0 0-.828 1.242q-.396.702-.648 1.404L186.459 22h-1.26zm16.011.18q.216-.576.27-.81.072-.252.072-.432a1.2 1.2 0 0 0-.054-.342.8.8 0 0 0-.162-.36.84.84 0 0 0-.306-.27q-.198-.126-.522-.126-.594 0-1.17.342a4.7 4.7 0 0 0-1.062.864q-.486.54-.9 1.242-.414.684-.72 1.404a9.6 9.6 0 0 0-.45 1.368 5 5 0 0 0-.162 1.17q0 .576.216.936.234.36.756.36t1.062-.324.99-.774.774-.9.414-.702zm.144 3.096q-.162.468-.288.9a3.2 3.2 0 0 0-.108.774q0 .468.45.468.36 0 .648-.198.288-.216.486-.468.216-.27.342-.522.144-.27.198-.378l.234.126q-.09.198-.27.504t-.468.594q-.288.27-.666.468a1.75 1.75 0 0 1-.882.216q-1.188 0-1.188-1.08 0-.126.054-.432.054-.324.144-.576h-.036q-.252.306-.576.684-.324.36-.738.684a3.7 3.7 0 0 1-.882.504 2.6 2.6 0 0 1-1.08.216 2 2 0 0 1-.738-.144 1.7 1.7 0 0 1-.612-.396 2.1 2.1 0 0 1-.432-.72 3.3 3.3 0 0 1-.144-1.026q0-.72.288-1.44t.738-1.368a8 8 0 0 1 1.062-1.224q.612-.558 1.224-.972.63-.414 1.224-.648.612-.234 1.08-.234.54 0 .918.306a.99.99 0 0 1 .378.81h.036l2.34-6.588h-1.584l.072-.252h2.862zm5.168-3.276q.162-.468.306-.954l.288-.972h-1.566l.072-.252h2.772q-.09.378-.27.954-.162.576-.36 1.116l.036.036q.18-.27.45-.648a6 6 0 0 1 .612-.72q.342-.36.756-.594.414-.252.882-.252.666 0 1.008.378.36.378.342.81 0 .288-.108.486a.73.73 0 0 1-.252.288 1 1 0 0 1-.306.126q-.162.036-.306.036a.65.65 0 0 1-.414-.126q-.162-.126-.162-.378 0-.198.072-.288.09-.108.18-.198t.162-.198a.44.44 0 0 0 .09-.288.34.34 0 0 0-.144-.288.6.6 0 0 0-.36-.108q-.342 0-.792.36-.45.342-.9.9a9.3 9.3 0 0 0-.828 1.242q-.396.702-.648 1.404L207.782 22h-1.26zm11.272-1.296a.9.9 0 0 0-.216-.612q-.216-.252-.72-.252-.558 0-1.08.324a4.2 4.2 0 0 0-.918.81 5.6 5.6 0 0 0-.72 1.026 6 6 0 0 0-.468 1.008q.414.072.918.072.648 0 1.224-.198t1.008-.522q.45-.324.702-.756.27-.432.27-.9m.036 5.076q-.108.126-.324.468a3.7 3.7 0 0 1-.594.666 4.3 4.3 0 0 1-.936.594q-.54.252-1.314.252t-1.314-.252a2.6 2.6 0 0 1-.864-.648 2.8 2.8 0 0 1-.486-.864 3.3 3.3 0 0 1-.144-.936q0-.9.432-1.854.45-.972 1.152-1.764.72-.81 1.62-1.332t1.836-.522q.36 0 .72.09.36.072.648.234t.468.414.18.612q0 .486-.27.864-.252.36-.666.63a5 5 0 0 1-.918.432q-.486.18-.954.288-.468.09-.864.144a7 7 0 0 1-.558.036q-.306 0-.594-.018a5 5 0 0 1-.504-.054q-.198.576-.342 1.152a5.4 5.4 0 0 0-.126 1.188q0 .972.504 1.458.504.468 1.278.468.576 0 1.008-.216.45-.234.774-.54.342-.306.558-.612.234-.324.378-.504zm8.042-3.6q.216-.576.27-.81.072-.252.072-.432a1.2 1.2 0 0 0-.054-.342.8.8 0 0 0-.162-.36.84.84 0 0 0-.306-.27q-.198-.126-.522-.126-.594 0-1.17.342a4.7 4.7 0 0 0-1.062.864q-.486.54-.9 1.242-.414.684-.72 1.404a9.6 9.6 0 0 0-.45 1.368 5 5 0 0 0-.162 1.17q0 .576.216.936.234.36.756.36t1.062-.324.99-.774.774-.9.414-.702zm.144 3.096q-.162.468-.288.9a3.2 3.2 0 0 0-.108.774q0 .468.45.468.36 0 .648-.198.288-.216.486-.468.216-.27.342-.522.144-.27.198-.378l.234.126q-.09.198-.27.504t-.468.594q-.288.27-.666.468a1.75 1.75 0 0 1-.882.216q-1.188 0-1.188-1.08 0-.126.054-.432.054-.324.144-.576h-.036q-.252.306-.576.684-.324.36-.738.684a3.7 3.7 0 0 1-.882.504 2.6 2.6 0 0 1-1.08.216 2 2 0 0 1-.738-.144 1.7 1.7 0 0 1-.612-.396 2.1 2.1 0 0 1-.432-.72 3.3 3.3 0 0 1-.144-1.026q0-.72.288-1.44t.738-1.368a8 8 0 0 1 1.062-1.224q.612-.558 1.224-.972.63-.414 1.224-.648.612-.234 1.08-.234.54 0 .918.306a.99.99 0 0 1 .378.81h.036l.306-.882h1.26zm5.618-5.202h-1.638l.072-.252h2.844l-.684 2.052h.036q.216-.306.54-.684a6 6 0 0 1 .756-.702 4.5 4.5 0 0 1 .882-.54q.468-.234.936-.234.684 0 1.044.414.378.396.378.99 0 .324-.09.684h.036a7 7 0 0 1 1.17-1.314q.396-.324.846-.54.45-.234.9-.234.756 0 1.188.414.45.396.45.99 0 .306-.108.612-.09.288-.234.702l-1.17 3.33q-.108.306-.198.648t-.09.612q0 .162.09.342.09.162.378.162.324 0 .594-.18t.486-.432.378-.522q.162-.288.27-.486l.198.09q-.09.18-.252.486a3 3 0 0 1-.432.576 2.2 2.2 0 0 1-.63.486 1.8 1.8 0 0 1-.9.216q-.576 0-.972-.252t-.396-.828q0-.234.036-.45t.18-.576l1.512-4.302q.144-.432.144-.72 0-.306-.144-.486t-.558-.18q-.378 0-.864.306-.468.306-.954.828a8.5 8.5 0 0 0-.9 1.224 8 8 0 0 0-.72 1.458L236.638 22h-1.26l2.106-5.814q.252-.756.252-1.044 0-.324-.126-.522t-.45-.198-.81.252q-.468.234-.972.72a6.8 6.8 0 0 0-.99 1.188 7.6 7.6 0 0 0-.81 1.656L232.228 22h-1.242zm13.046 3.474q-.27-.36-.504-.702a1.6 1.6 0 0 1-.216-.846q0-.414.216-.846t.594-.774q.378-.36.9-.576.54-.216 1.152-.216.756 0 1.206.342.468.324.468.846 0 .756-.738.756a.75.75 0 0 1-.45-.144.5.5 0 0 1-.18-.414q0-.252.108-.36a.42.42 0 0 0 .126-.306q0-.468-.612-.468-.432 0-.756.126a1.6 1.6 0 0 0-.522.342 1.6 1.6 0 0 0-.306.486q-.09.27-.09.54 0 .36.18.684.18.306.504.738l1.062 1.386q.216.27.288.576.09.288.09.594 0 .612-.306 1.08-.306.45-.774.756-.45.306-.99.45a3.3 3.3 0 0 1-.99.162q-.414 0-.792-.09a2.6 2.6 0 0 1-.666-.252 1.55 1.55 0 0 1-.486-.432q-.18-.27-.18-.612 0-.414.27-.612.252-.216.648-.216.162 0 .288.126a.33.33 0 0 1 .144.27 1 1 0 0 1-.09.414.9.9 0 0 0-.09.396q0 .432.27.612.288.162.738.162t.792-.144q.36-.144.594-.36.252-.216.378-.486t.126-.504a1.6 1.6 0 0 0-.126-.648 2.7 2.7 0 0 0-.378-.648zm15.17-1.368q.216-.576.27-.81.072-.252.072-.432a1.2 1.2 0 0 0-.054-.342.8.8 0 0 0-.162-.36.84.84 0 0 0-.306-.27q-.198-.126-.522-.126-.594 0-1.17.342a4.7 4.7 0 0 0-1.062.864q-.486.54-.9 1.242-.414.684-.72 1.404a9.6 9.6 0 0 0-.45 1.368 5 5 0 0 0-.162 1.17q0 .576.216.936.234.36.756.36t1.062-.324.99-.774.774-.9.414-.702zm.144 3.096q-.162.468-.288.9a3.2 3.2 0 0 0-.108.774q0 .468.45.468.36 0 .648-.198.288-.216.486-.468.216-.27.342-.522.144-.27.198-.378l.234.126q-.09.198-.27.504t-.468.594q-.288.27-.666.468a1.75 1.75 0 0 1-.882.216q-1.188 0-1.188-1.08 0-.126.054-.432.054-.324.144-.576h-.036q-.252.306-.576.684-.324.36-.738.684a3.7 3.7 0 0 1-.882.504 2.6 2.6 0 0 1-1.08.216 2 2 0 0 1-.738-.144 1.7 1.7 0 0 1-.612-.396 2.1 2.1 0 0 1-.432-.72 3.3 3.3 0 0 1-.144-1.026q0-.72.288-1.44t.738-1.368a8 8 0 0 1 1.062-1.224q.612-.558 1.224-.972.63-.414 1.224-.648.612-.234 1.08-.234.54 0 .918.306a.99.99 0 0 1 .378.81h.036l.306-.882h1.26zm5.168-3.276q.162-.468.306-.954l.288-.972h-1.566l.072-.252h2.772q-.09.378-.27.954-.162.576-.36 1.116l.036.036q.18-.27.45-.648a6 6 0 0 1 .612-.72q.342-.36.756-.594.414-.252.882-.252.666 0 1.008.378.36.378.342.81 0 .288-.108.486a.73.73 0 0 1-.252.288 1 1 0 0 1-.306.126q-.162.036-.306.036a.65.65 0 0 1-.414-.126q-.162-.126-.162-.378 0-.198.072-.288.09-.108.18-.198t.162-.198a.44.44 0 0 0 .09-.288.34.34 0 0 0-.144-.288.6.6 0 0 0-.36-.108q-.342 0-.792.36-.45.342-.9.9a9.3 9.3 0 0 0-.828 1.242q-.396.702-.648 1.404L266.422 22h-1.26zm11.272-1.296a.9.9 0 0 0-.216-.612q-.216-.252-.72-.252-.558 0-1.08.324a4.2 4.2 0 0 0-.918.81 5.6 5.6 0 0 0-.72 1.026 6 6 0 0 0-.468 1.008q.414.072.918.072.648 0 1.224-.198t1.008-.522q.45-.324.702-.756.27-.432.27-.9m.036 5.076q-.108.126-.324.468a3.7 3.7 0 0 1-.594.666 4.3 4.3 0 0 1-.936.594q-.54.252-1.314.252t-1.314-.252a2.6 2.6 0 0 1-.864-.648 2.8 2.8 0 0 1-.486-.864 3.3 3.3 0 0 1-.144-.936q0-.9.432-1.854.45-.972 1.152-1.764.72-.81 1.62-1.332t1.836-.522q.36 0 .72.09.36.072.648.234t.468.414.18.612q0 .486-.27.864-.252.36-.666.63a5 5 0 0 1-.918.432q-.486.18-.954.288-.468.09-.864.144a7 7 0 0 1-.558.036q-.306 0-.594-.018a5 5 0 0 1-.504-.054q-.198.576-.342 1.152a5.4 5.4 0 0 0-.126 1.188q0 .972.504 1.458.504.468 1.278.468.576 0 1.008-.216.45-.234.774-.54.342-.306.558-.612.234-.324.378-.504z"/></svg>