<svg width="282" height="30" viewBox="0 0 282 30" fill="none" xmlns="http://www.w3.org/2000/svg">
<path d="M21.049 5.91762C21.1933 5.71343 21.1932 5.7134 21.1932 5.71337L21.1931 5.71327L21.1927 5.71302L21.1916 5.71224L21.1878 5.70959L21.174 5.70006C21.1621 5.69188 21.1448 5.6801 21.1223 5.66511C21.0774 5.63512 21.0117 5.59226 20.9274 5.53961C20.7587 5.43435 20.5148 5.28975 20.2113 5.1306C19.6052 4.81284 18.7564 4.43431 17.7907 4.19689C14.2706 3.33148 10.0723 4.87159 7.34884 7.25378C5.61354 8.77163 4.55167 10.1644 3.92211 11.1832C3.60742 11.6924 3.40097 12.1079 3.2725 12.3984C3.25288 12.4428 3.23508 12.4842 3.21899 12.5226C3.12573 12.4417 3.01159 12.3381 2.88371 12.2131C2.53032 11.8675 2.07449 11.3598 1.66407 10.712C0.844604 9.4184 0.211139 7.57677 0.920014 5.3378C1.63656 3.07461 2.99567 1.69023 4.62626 0.947742C6.26469 0.201684 8.19662 0.0955802 10.0571 0.432512C13.0672 0.977617 17.2954 2.45026 20.0365 3.40497C20.7278 3.64571 21.3244 3.85352 21.7831 4.00522C22.9228 4.38209 23.9254 4.63553 25.1193 4.70865C26.2549 4.77821 27.5529 4.684 29.2972 4.38893C29.3028 4.46802 29.3067 4.56538 29.3058 4.67915C29.3032 5.02848 29.2552 5.53244 29.0712 6.13758C28.7042 7.34391 27.7903 8.97168 25.5744 10.5839C23.3338 12.2139 20.9671 13.4831 18.9671 14.4851C18.4672 14.7355 17.9907 14.969 17.5446 15.1874L17.4936 15.2124C17.0672 15.4212 16.6686 15.6163 16.3062 15.7985C15.5575 16.1748 14.9449 16.5046 14.5508 16.7953C14.3007 16.9798 14.0331 17.1587 13.7525 17.3462C13.6184 17.4359 13.4812 17.5276 13.3416 17.6228C12.9161 17.913 12.4787 18.2291 12.0793 18.5969C11.2752 19.3372 10.6212 20.2909 10.4984 21.6778C10.3576 23.2685 11.1177 24.322 12.1843 24.9221C13.234 25.5127 14.5784 25.6673 15.6669 25.513C16.407 25.4081 17.0721 25.1572 17.5154 24.6149C17.9603 24.0708 18.1414 23.2829 18.0247 22.1949C17.991 21.8809 17.9556 21.5852 17.9218 21.3032C17.8674 20.8482 17.8172 20.4292 17.7855 20.0281C17.7348 19.385 17.7351 18.819 17.8423 18.2868C18.053 17.2409 18.6883 16.2684 20.328 15.1106C21.921 13.9858 23.7992 13.9092 25.441 14.4425C27.0899 14.9781 28.4642 16.1175 29.046 17.3705C30.2356 19.9325 29.8323 24.1498 26.703 26.8139C25.1062 28.1733 23.8583 28.9383 22.487 29.345C21.1113 29.7531 19.5891 29.8077 17.4268 29.705C15.3236 29.6051 13.4281 28.4816 11.5339 27.2079C11.2776 27.0356 11.0211 26.8603 10.7641 26.6846C9.14536 25.5783 7.50704 24.4586 5.77411 23.981C3.84402 23.4491 2.46712 23.498 1.56148 23.6901C1.13488 23.7806 0.814994 23.9024 0.593067 24.0084C0.590778 23.9136 0.589411 23.8035 0.589968 23.6801C0.592052 23.2189 0.620989 22.5721 0.728405 21.832C0.943853 20.3476 1.47171 18.5108 2.70895 17.0378C5.24849 14.0145 8.4381 11.4454 11.6729 10.091C12.1432 9.89412 14.511 8.90858 16.7617 7.97205L19.7973 6.70908L20.7766 6.3017L21.049 6.1884L21.1206 6.15864L21.1389 6.15102L21.1435 6.14909L21.1447 6.14861L21.145 6.14849C21.145 6.14846 21.1451 6.14845 21.049 5.91762ZM21.049 5.91762L21.1933 5.71343L21.563 5.97461L21.1451 6.14845L21.049 5.91762Z" fill="#FB9EBC" stroke="black" stroke-width="0.5"/>
<path d="M54.6213 5.91762C54.7173 6.14845 54.7173 6.14846 54.7172 6.14849L54.7169 6.14861L54.7158 6.14909L54.7111 6.15102L54.6928 6.15864L54.6213 6.1884L54.3489 6.3017L53.3696 6.70908L50.334 7.97205C48.0833 8.90858 45.7155 9.89412 45.2452 10.091C42.0104 11.4454 38.8208 14.0145 36.2812 17.0378C35.044 18.5108 34.5161 20.3476 34.3007 21.832C34.1933 22.5721 34.1643 23.2189 34.1622 23.6801C34.1617 23.8035 34.163 23.9136 34.1653 24.0084C34.3873 23.9024 34.7071 23.7806 35.1337 23.6901C36.0394 23.498 37.4163 23.4491 39.3464 23.981C41.0793 24.4586 42.7176 25.5783 44.3364 26.6846C44.5934 26.8603 44.8498 27.0356 45.1061 27.2079C47.0004 28.4816 48.8958 29.6051 50.9991 29.705C53.1614 29.8077 54.6836 29.7531 56.0593 29.345C57.4306 28.9383 58.6785 28.1733 60.2753 26.8139C63.4046 24.1498 63.8079 19.9325 62.6182 17.3705C62.0364 16.1175 60.6622 14.9781 59.0133 14.4425C57.3714 13.9092 55.4933 13.9858 53.9002 15.1106C52.2606 16.2684 51.6252 17.2409 51.4146 18.2868C51.3074 18.819 51.3071 19.385 51.3578 20.0281C51.3895 20.4292 51.4396 20.8482 51.4941 21.3032C51.5279 21.5852 51.5633 21.8809 51.597 22.1949C51.7137 23.2829 51.5325 24.0708 51.0877 24.6149C50.6444 25.1572 49.9793 25.4081 49.2391 25.513C48.1507 25.6673 46.8063 25.5127 45.7566 24.9221C44.6899 24.322 43.9299 23.2685 44.0707 21.6778C44.1935 20.2909 44.8474 19.3372 45.6515 18.5969C46.051 18.2291 46.4883 17.913 46.9139 17.6228C47.0535 17.5276 47.1906 17.4359 47.3248 17.3462C47.6053 17.1587 47.873 16.9798 48.1231 16.7953C48.5172 16.5046 49.1297 16.1748 49.8784 15.7985C50.241 15.6163 50.6397 15.4211 51.0662 15.2122L51.1169 15.1874C51.563 14.969 52.0395 14.7355 52.5394 14.4851C54.5393 13.4831 56.9061 12.2139 59.1466 10.5839C61.3626 8.97168 62.2765 7.34391 62.6434 6.13758C62.8275 5.53244 62.8754 5.02848 62.8781 4.67915C62.879 4.56538 62.875 4.46802 62.8694 4.38893C61.1252 4.684 59.8272 4.77821 58.6915 4.70865C57.4976 4.63553 56.495 4.38209 55.3554 4.00522C54.8967 3.85352 54.3 3.64571 53.6088 3.40497C50.8677 2.45026 46.6394 0.977618 43.6294 0.432512C41.7689 0.0955802 39.837 0.201684 38.1985 0.947742C36.5679 1.69023 35.2088 3.07461 34.4923 5.3378C33.7834 7.57677 34.4169 9.4184 35.2363 10.712C35.6468 11.3598 36.1026 11.8675 36.456 12.2131C36.5839 12.3381 36.698 12.4417 36.7913 12.5226C36.8074 12.4842 36.8252 12.4428 36.8448 12.3984C36.9733 12.1079 37.1797 11.6924 37.4944 11.1832C38.1239 10.1644 39.1858 8.77163 40.9211 7.25378C43.6446 4.87159 47.8429 3.33148 51.3629 4.19689C52.3286 4.43431 53.1775 4.81284 53.7835 5.1306C54.087 5.28975 54.331 5.43435 54.4996 5.53961C54.584 5.59226 54.6496 5.63512 54.6946 5.66511C54.7171 5.6801 54.7344 5.69188 54.7463 5.70006L54.7601 5.70959L54.7639 5.71224L54.765 5.71302L54.7653 5.71327L54.7655 5.71337C54.7655 5.7134 54.7656 5.71343 54.6213 5.91762ZM54.6213 5.91762L54.7173 6.14845L55.1352 5.97461L54.7656 5.71343L54.6213 5.91762Z" fill="#FB9EBC" stroke="black" stroke-width="0.5"/>
<path d="M88.1936 5.91762C88.2896 6.14845 88.2895 6.14846 88.2895 6.14849L88.2892 6.14861L88.288 6.14909L88.2834 6.15102L88.2651 6.15864L88.1935 6.1884L87.9212 6.3017L86.9419 6.70908L83.9063 7.97205C81.6556 8.90858 79.2878 9.89412 78.8174 10.091C75.5826 11.4454 72.393 14.0145 69.8535 17.0378C68.6162 18.5108 68.0884 20.3476 67.8729 21.832C67.7655 22.5721 67.7366 23.2189 67.7345 23.6801C67.7339 23.8035 67.7353 23.9136 67.7376 24.0084C67.9595 23.9024 68.2794 23.7806 68.706 23.6901C69.6116 23.498 70.9885 23.4491 72.9186 23.981C74.6516 24.4586 76.2899 25.5783 77.9086 26.6846C78.1656 26.8603 78.4221 27.0356 78.6784 27.2079C80.5726 28.4816 82.4681 29.6051 84.5714 29.705C86.7337 29.8077 88.2559 29.7531 89.6316 29.345C91.0028 28.9383 92.2507 28.1733 93.8475 26.8139C96.9768 24.1498 97.3802 19.9325 96.1905 17.3705C95.6087 16.1175 94.2345 14.9781 92.5856 14.4425C90.9437 13.9092 89.0655 13.9858 87.4725 15.1106C85.8328 16.2684 85.1975 17.2409 84.9868 18.2868C84.8796 18.819 84.8793 19.385 84.9301 20.0281C84.9617 20.4292 85.0119 20.8481 85.0664 21.3032C85.1001 21.5851 85.1355 21.8809 85.1692 22.1949C85.286 23.2829 85.1048 24.0708 84.6599 24.6149C84.2167 25.1572 83.5516 25.4081 82.8114 25.513C81.723 25.6673 80.3786 25.5127 79.3288 24.9221C78.2622 24.322 77.5022 23.2685 77.643 21.6778C77.7657 20.2909 78.4197 19.3372 79.2238 18.5969C79.6232 18.2291 80.0606 17.913 80.4862 17.6228C80.6258 17.5276 80.7629 17.4359 80.8971 17.3462C81.1776 17.1587 81.4452 16.9798 81.6954 16.7953C82.0894 16.5046 82.702 16.1748 83.4507 15.7985C83.8132 15.6163 84.212 15.4211 84.6385 15.2122L84.6892 15.1874C85.1352 14.969 85.6117 14.7355 86.1116 14.4851C88.1116 13.4831 90.4783 12.2139 92.7189 10.5839C94.9349 8.97168 95.8488 7.34391 96.2157 6.13758C96.3998 5.53244 96.4477 5.02848 96.4504 4.67915C96.4512 4.56538 96.4473 4.46802 96.4417 4.38893C94.6974 4.684 93.3994 4.77821 92.2638 4.70865C91.0699 4.63553 90.0673 4.38209 88.9277 4.00522C88.4689 3.85352 87.8723 3.64571 87.1811 3.40497C84.4399 2.45026 80.2117 0.977617 77.2017 0.432512C75.3411 0.0955802 73.4092 0.201684 71.7708 0.947743C70.1402 1.69023 68.7811 3.07461 68.0645 5.3378C67.3557 7.57677 67.9891 9.4184 68.8086 10.712C69.219 11.3598 69.6749 11.8675 70.0282 12.2131C70.1561 12.3381 70.2703 12.4417 70.3635 12.5226C70.3796 12.4842 70.3974 12.4428 70.417 12.3984C70.5455 12.1079 70.752 11.6924 71.0666 11.1832C71.6962 10.1644 72.7581 8.77163 74.4934 7.25378C77.2168 4.87159 81.4152 3.33148 84.9352 4.19689C85.9009 4.43431 86.7498 4.81284 87.3558 5.1306C87.6593 5.28975 87.9032 5.43435 88.0719 5.53961C88.1563 5.59226 88.2219 5.63512 88.2669 5.66511C88.2893 5.6801 88.3066 5.69188 88.3186 5.70006L88.3323 5.70959L88.3361 5.71224L88.3372 5.71302L88.3376 5.71327L88.3377 5.71337C88.3378 5.7134 88.3378 5.71343 88.1936 5.91762ZM88.1936 5.91762L88.2896 6.14845L88.7075 5.97461L88.3378 5.71343L88.1936 5.91762Z" fill="#FB9EBC" stroke="black" stroke-width="0.5"/>
<path d="M107.003 14.926C107.003 14.686 107.081 14.488 107.237 14.332C107.405 14.164 107.609 14.08 107.849 14.08C108.089 14.08 108.287 14.164 108.443 14.332C108.611 14.488 108.695 14.686 108.695 14.926C108.695 15.166 108.611 15.37 108.443 15.538C108.287 15.694 108.089 15.772 107.849 15.772C107.609 15.772 107.405 15.694 107.237 15.538C107.081 15.37 107.003 15.166 107.003 14.926ZM105.275 21.388C105.275 21.148 105.353 20.95 105.509 20.794C105.677 20.626 105.881 20.542 106.121 20.542C106.361 20.542 106.559 20.626 106.715 20.794C106.883 20.95 106.967 21.148 106.967 21.388C106.967 21.628 106.883 21.826 106.715 21.982C106.559 22.138 106.361 22.216 106.121 22.216C105.881 22.216 105.677 22.138 105.509 21.982C105.353 21.826 105.275 21.628 105.275 21.388ZM115.211 9.436H113.231L113.303 9.184H118.595L118.523 9.436H116.777L116.669 20.038H116.705L121.403 13L121.439 9.436H119.549L119.621 9.184H125.075L125.003 9.436H122.987L122.879 19.912H122.915L129.917 9.436H128.189L128.261 9.184H131.951L131.879 9.436H130.277L121.673 22.234H121.313L121.385 13.558H121.349L115.517 22.234H115.067L115.211 9.436ZM135.265 8.572H133.627L133.699 8.32H136.543L133.537 16.474H133.573C133.753 16.234 133.963 15.982 134.203 15.718C134.443 15.442 134.707 15.19 134.995 14.962C135.283 14.734 135.583 14.548 135.895 14.404C136.219 14.248 136.543 14.17 136.867 14.17C137.371 14.17 137.767 14.308 138.055 14.584C138.355 14.848 138.505 15.178 138.505 15.574C138.505 15.778 138.469 15.982 138.397 16.186C138.337 16.378 138.259 16.612 138.163 16.888L136.993 20.218C136.921 20.422 136.855 20.626 136.795 20.83C136.735 21.022 136.705 21.214 136.705 21.406C136.705 21.55 136.735 21.682 136.795 21.802C136.855 21.922 136.981 21.982 137.173 21.982C137.389 21.982 137.587 21.922 137.767 21.802C137.947 21.682 138.109 21.538 138.253 21.37C138.409 21.202 138.541 21.028 138.649 20.848C138.757 20.656 138.841 20.494 138.901 20.362L139.099 20.452C139.039 20.572 138.955 20.734 138.847 20.938C138.739 21.13 138.595 21.322 138.415 21.514C138.247 21.706 138.037 21.868 137.785 22C137.533 22.144 137.233 22.216 136.885 22.216C136.501 22.216 136.177 22.132 135.913 21.964C135.649 21.796 135.517 21.52 135.517 21.136C135.517 20.98 135.535 20.818 135.571 20.65C135.619 20.482 135.673 20.302 135.733 20.11L137.245 15.808C137.341 15.52 137.389 15.28 137.389 15.088C137.389 14.932 137.335 14.782 137.227 14.638C137.131 14.494 136.951 14.422 136.687 14.422C136.423 14.422 136.117 14.524 135.769 14.728C135.421 14.92 135.073 15.19 134.725 15.538C134.377 15.874 134.047 16.276 133.735 16.744C133.435 17.2 133.189 17.698 132.997 18.238L131.647 22H130.405L135.265 8.572ZM146.103 15.16C146.103 14.92 146.031 14.716 145.887 14.548C145.743 14.38 145.503 14.296 145.167 14.296C144.795 14.296 144.435 14.404 144.087 14.62C143.751 14.836 143.445 15.106 143.169 15.43C142.893 15.742 142.653 16.084 142.449 16.456C142.245 16.816 142.089 17.152 141.981 17.464C142.257 17.512 142.563 17.536 142.899 17.536C143.331 17.536 143.739 17.47 144.123 17.338C144.507 17.206 144.843 17.032 145.131 16.816C145.431 16.6 145.665 16.348 145.833 16.06C146.013 15.772 146.103 15.472 146.103 15.16ZM146.139 20.236C146.067 20.32 145.959 20.476 145.815 20.704C145.671 20.92 145.473 21.142 145.221 21.37C144.969 21.586 144.657 21.784 144.285 21.964C143.925 22.132 143.487 22.216 142.971 22.216C142.455 22.216 142.017 22.132 141.657 21.964C141.309 21.796 141.021 21.58 140.793 21.316C140.577 21.052 140.415 20.764 140.307 20.452C140.211 20.128 140.163 19.816 140.163 19.516C140.163 18.916 140.307 18.298 140.595 17.662C140.895 17.014 141.279 16.426 141.747 15.898C142.227 15.358 142.767 14.914 143.367 14.566C143.967 14.218 144.579 14.044 145.203 14.044C145.443 14.044 145.683 14.074 145.923 14.134C146.163 14.182 146.379 14.26 146.571 14.368C146.763 14.476 146.919 14.614 147.039 14.782C147.159 14.95 147.219 15.154 147.219 15.394C147.219 15.718 147.129 16.006 146.949 16.258C146.781 16.498 146.559 16.708 146.283 16.888C146.007 17.056 145.701 17.2 145.365 17.32C145.041 17.44 144.723 17.536 144.411 17.608C144.099 17.668 143.811 17.716 143.547 17.752C143.295 17.776 143.109 17.788 142.989 17.788C142.785 17.788 142.587 17.782 142.395 17.77C142.203 17.758 142.035 17.74 141.891 17.716C141.759 18.1 141.645 18.484 141.549 18.868C141.465 19.24 141.423 19.636 141.423 20.056C141.423 20.704 141.591 21.19 141.927 21.514C142.263 21.826 142.689 21.982 143.205 21.982C143.589 21.982 143.925 21.91 144.213 21.766C144.513 21.61 144.771 21.43 144.987 21.226C145.215 21.022 145.401 20.818 145.545 20.614C145.701 20.398 145.827 20.23 145.923 20.11L146.139 20.236ZM149.825 16.456C149.933 16.144 150.035 15.826 150.131 15.502C150.227 15.178 150.323 14.854 150.419 14.53H148.853L148.925 14.278H151.697C151.637 14.53 151.547 14.848 151.427 15.232C151.319 15.616 151.199 15.988 151.067 16.348L151.103 16.384C151.223 16.204 151.373 15.988 151.553 15.736C151.733 15.484 151.937 15.244 152.165 15.016C152.393 14.776 152.645 14.578 152.921 14.422C153.197 14.254 153.491 14.17 153.803 14.17C154.247 14.17 154.583 14.296 154.811 14.548C155.051 14.8 155.165 15.07 155.153 15.358C155.153 15.55 155.117 15.712 155.045 15.844C154.985 15.964 154.901 16.06 154.793 16.132C154.697 16.192 154.595 16.234 154.487 16.258C154.379 16.282 154.277 16.294 154.181 16.294C154.013 16.294 153.875 16.252 153.767 16.168C153.659 16.084 153.605 15.958 153.605 15.79C153.605 15.658 153.629 15.562 153.677 15.502C153.737 15.43 153.797 15.364 153.857 15.304C153.917 15.244 153.971 15.178 154.019 15.106C154.079 15.034 154.109 14.938 154.109 14.818C154.109 14.698 154.061 14.602 153.965 14.53C153.869 14.458 153.749 14.422 153.605 14.422C153.377 14.422 153.113 14.542 152.813 14.782C152.513 15.01 152.213 15.31 151.913 15.682C151.625 16.042 151.349 16.456 151.085 16.924C150.821 17.392 150.605 17.86 150.437 18.328L149.141 22H147.881L149.825 16.456ZM161.097 15.16C161.097 14.92 161.025 14.716 160.881 14.548C160.737 14.38 160.497 14.296 160.161 14.296C159.789 14.296 159.429 14.404 159.081 14.62C158.745 14.836 158.439 15.106 158.163 15.43C157.887 15.742 157.647 16.084 157.443 16.456C157.239 16.816 157.083 17.152 156.975 17.464C157.251 17.512 157.557 17.536 157.893 17.536C158.325 17.536 158.733 17.47 159.117 17.338C159.501 17.206 159.837 17.032 160.125 16.816C160.425 16.6 160.659 16.348 160.827 16.06C161.007 15.772 161.097 15.472 161.097 15.16ZM161.133 20.236C161.061 20.32 160.953 20.476 160.809 20.704C160.665 20.92 160.467 21.142 160.215 21.37C159.963 21.586 159.651 21.784 159.279 21.964C158.919 22.132 158.481 22.216 157.965 22.216C157.449 22.216 157.011 22.132 156.651 21.964C156.303 21.796 156.015 21.58 155.787 21.316C155.571 21.052 155.409 20.764 155.301 20.452C155.205 20.128 155.157 19.816 155.157 19.516C155.157 18.916 155.301 18.298 155.589 17.662C155.889 17.014 156.273 16.426 156.741 15.898C157.221 15.358 157.761 14.914 158.361 14.566C158.961 14.218 159.573 14.044 160.197 14.044C160.437 14.044 160.677 14.074 160.917 14.134C161.157 14.182 161.373 14.26 161.565 14.368C161.757 14.476 161.913 14.614 162.033 14.782C162.153 14.95 162.213 15.154 162.213 15.394C162.213 15.718 162.123 16.006 161.943 16.258C161.775 16.498 161.553 16.708 161.277 16.888C161.001 17.056 160.695 17.2 160.359 17.32C160.035 17.44 159.717 17.536 159.405 17.608C159.093 17.668 158.805 17.716 158.541 17.752C158.289 17.776 158.103 17.788 157.983 17.788C157.779 17.788 157.581 17.782 157.389 17.77C157.197 17.758 157.029 17.74 156.885 17.716C156.753 18.1 156.639 18.484 156.543 18.868C156.459 19.24 156.417 19.636 156.417 20.056C156.417 20.704 156.585 21.19 156.921 21.514C157.257 21.826 157.683 21.982 158.199 21.982C158.583 21.982 158.919 21.91 159.207 21.766C159.507 21.61 159.765 21.43 159.981 21.226C160.209 21.022 160.395 20.818 160.539 20.614C160.695 20.398 160.821 20.23 160.917 20.11L161.133 20.236ZM168.297 20.182C168.297 20.794 168.441 21.25 168.729 21.55C169.029 21.838 169.407 21.982 169.863 21.982C170.235 21.982 170.583 21.874 170.907 21.658C171.231 21.442 171.525 21.16 171.789 20.812C172.053 20.452 172.287 20.056 172.491 19.624C172.695 19.192 172.863 18.76 172.995 18.328C173.139 17.896 173.247 17.488 173.319 17.104C173.391 16.72 173.427 16.408 173.427 16.168C173.427 15.592 173.301 15.136 173.049 14.8C172.809 14.464 172.383 14.296 171.771 14.296C171.423 14.296 171.093 14.398 170.781 14.602C170.469 14.806 170.181 15.076 169.917 15.412C169.665 15.736 169.437 16.108 169.233 16.528C169.029 16.948 168.855 17.38 168.711 17.824C168.579 18.256 168.477 18.682 168.405 19.102C168.333 19.51 168.297 19.87 168.297 20.182ZM167.109 19.174C167.109 18.454 167.259 17.782 167.559 17.158C167.859 16.522 168.237 15.976 168.693 15.52C169.161 15.064 169.677 14.704 170.241 14.44C170.805 14.176 171.345 14.044 171.861 14.044C172.329 14.044 172.737 14.14 173.085 14.332C173.433 14.524 173.721 14.77 173.949 15.07C174.177 15.37 174.345 15.7 174.453 16.06C174.561 16.42 174.615 16.768 174.615 17.104C174.615 17.8 174.465 18.46 174.165 19.084C173.865 19.696 173.487 20.236 173.031 20.704C172.575 21.172 172.065 21.544 171.501 21.82C170.949 22.084 170.421 22.216 169.917 22.216C169.485 22.216 169.095 22.132 168.747 21.964C168.411 21.796 168.117 21.574 167.865 21.298C167.625 21.022 167.439 20.704 167.307 20.344C167.175 19.972 167.109 19.582 167.109 19.174ZM176.603 14.278H179.501L177.431 20.218C177.335 20.47 177.263 20.698 177.215 20.902C177.167 21.094 177.143 21.238 177.143 21.334C177.143 21.502 177.185 21.652 177.269 21.784C177.365 21.916 177.521 21.982 177.737 21.982C178.061 21.982 178.409 21.862 178.781 21.622C179.165 21.37 179.537 21.052 179.897 20.668C180.257 20.284 180.587 19.858 180.887 19.39C181.187 18.91 181.421 18.436 181.589 17.968L182.867 14.278H184.127L182.003 20.38C181.943 20.56 181.883 20.746 181.823 20.938C181.763 21.118 181.733 21.292 181.733 21.46C181.733 21.604 181.775 21.73 181.859 21.838C181.943 21.934 182.069 21.982 182.237 21.982C182.441 21.982 182.633 21.916 182.813 21.784C183.005 21.652 183.173 21.502 183.317 21.334C183.473 21.154 183.605 20.974 183.713 20.794C183.821 20.614 183.899 20.47 183.947 20.362L184.163 20.452C184.115 20.548 184.037 20.698 183.929 20.902C183.833 21.094 183.695 21.292 183.515 21.496C183.335 21.688 183.113 21.856 182.849 22C182.585 22.144 182.273 22.216 181.913 22.216C181.517 22.216 181.199 22.138 180.959 21.982C180.731 21.814 180.617 21.538 180.617 21.154C180.617 20.95 180.641 20.758 180.689 20.578C180.737 20.386 180.809 20.17 180.905 19.93L180.869 19.894C180.701 20.11 180.497 20.356 180.257 20.632C180.029 20.896 179.777 21.148 179.501 21.388C179.237 21.616 178.949 21.814 178.637 21.982C178.337 22.138 178.025 22.216 177.701 22.216C177.185 22.216 176.777 22.096 176.477 21.856C176.177 21.616 176.027 21.268 176.027 20.812C176.027 20.632 176.069 20.422 176.153 20.182C176.237 19.93 176.309 19.708 176.369 19.516L178.133 14.53H176.531L176.603 14.278ZM187.143 16.456C187.251 16.144 187.353 15.826 187.449 15.502C187.545 15.178 187.641 14.854 187.737 14.53H186.171L186.243 14.278H189.015C188.955 14.53 188.865 14.848 188.745 15.232C188.637 15.616 188.517 15.988 188.385 16.348L188.421 16.384C188.541 16.204 188.691 15.988 188.871 15.736C189.051 15.484 189.255 15.244 189.483 15.016C189.711 14.776 189.963 14.578 190.239 14.422C190.515 14.254 190.809 14.17 191.121 14.17C191.565 14.17 191.901 14.296 192.129 14.548C192.369 14.8 192.483 15.07 192.471 15.358C192.471 15.55 192.435 15.712 192.363 15.844C192.303 15.964 192.219 16.06 192.111 16.132C192.015 16.192 191.913 16.234 191.805 16.258C191.697 16.282 191.595 16.294 191.499 16.294C191.331 16.294 191.193 16.252 191.085 16.168C190.977 16.084 190.923 15.958 190.923 15.79C190.923 15.658 190.947 15.562 190.995 15.502C191.055 15.43 191.115 15.364 191.175 15.304C191.235 15.244 191.289 15.178 191.337 15.106C191.397 15.034 191.427 14.938 191.427 14.818C191.427 14.698 191.379 14.602 191.283 14.53C191.187 14.458 191.067 14.422 190.923 14.422C190.695 14.422 190.431 14.542 190.131 14.782C189.831 15.01 189.531 15.31 189.231 15.682C188.943 16.042 188.667 16.456 188.403 16.924C188.139 17.392 187.923 17.86 187.755 18.328L186.459 22H185.199L187.143 16.456ZM203.154 16.636C203.298 16.252 203.388 15.982 203.424 15.826C203.472 15.658 203.496 15.514 203.496 15.394C203.496 15.286 203.478 15.172 203.442 15.052C203.418 14.92 203.364 14.8 203.28 14.692C203.208 14.584 203.106 14.494 202.974 14.422C202.842 14.338 202.668 14.296 202.452 14.296C202.056 14.296 201.666 14.41 201.282 14.638C200.91 14.854 200.556 15.142 200.22 15.502C199.896 15.862 199.596 16.276 199.32 16.744C199.044 17.2 198.804 17.668 198.6 18.148C198.408 18.616 198.258 19.072 198.15 19.516C198.042 19.96 197.988 20.35 197.988 20.686C197.988 21.07 198.06 21.382 198.204 21.622C198.36 21.862 198.612 21.982 198.96 21.982C199.308 21.982 199.662 21.874 200.022 21.658C200.382 21.442 200.712 21.184 201.012 20.884C201.312 20.584 201.57 20.284 201.786 19.984C202.002 19.684 202.14 19.45 202.2 19.282L203.154 16.636ZM203.298 19.732C203.19 20.044 203.094 20.344 203.01 20.632C202.938 20.92 202.902 21.178 202.902 21.406C202.902 21.718 203.052 21.874 203.352 21.874C203.592 21.874 203.808 21.808 204 21.676C204.192 21.532 204.354 21.376 204.486 21.208C204.63 21.028 204.744 20.854 204.828 20.686C204.924 20.506 204.99 20.38 205.026 20.308L205.26 20.434C205.2 20.566 205.11 20.734 204.99 20.938C204.87 21.142 204.714 21.34 204.522 21.532C204.33 21.712 204.108 21.868 203.856 22C203.604 22.144 203.31 22.216 202.974 22.216C202.182 22.216 201.786 21.856 201.786 21.136C201.786 21.052 201.804 20.908 201.84 20.704C201.876 20.488 201.924 20.296 201.984 20.128H201.948C201.78 20.332 201.588 20.56 201.372 20.812C201.156 21.052 200.91 21.28 200.634 21.496C200.37 21.7 200.076 21.868 199.752 22C199.428 22.144 199.068 22.216 198.672 22.216C198.42 22.216 198.174 22.168 197.934 22.072C197.706 21.988 197.502 21.856 197.322 21.676C197.142 21.484 196.998 21.244 196.89 20.956C196.794 20.668 196.746 20.326 196.746 19.93C196.746 19.45 196.842 18.97 197.034 18.49C197.226 18.01 197.472 17.554 197.772 17.122C198.084 16.678 198.438 16.27 198.834 15.898C199.242 15.526 199.65 15.202 200.058 14.926C200.478 14.65 200.886 14.434 201.282 14.278C201.69 14.122 202.05 14.044 202.362 14.044C202.722 14.044 203.028 14.146 203.28 14.35C203.532 14.554 203.658 14.824 203.658 15.16H203.694L206.034 8.572H204.45L204.522 8.32H207.384L203.298 19.732ZM208.466 16.456C208.574 16.144 208.676 15.826 208.772 15.502C208.868 15.178 208.964 14.854 209.06 14.53H207.494L207.566 14.278H210.338C210.278 14.53 210.188 14.848 210.068 15.232C209.96 15.616 209.84 15.988 209.708 16.348L209.744 16.384C209.864 16.204 210.014 15.988 210.194 15.736C210.374 15.484 210.578 15.244 210.806 15.016C211.034 14.776 211.286 14.578 211.562 14.422C211.838 14.254 212.132 14.17 212.444 14.17C212.888 14.17 213.224 14.296 213.452 14.548C213.692 14.8 213.806 15.07 213.794 15.358C213.794 15.55 213.758 15.712 213.686 15.844C213.626 15.964 213.542 16.06 213.434 16.132C213.338 16.192 213.236 16.234 213.128 16.258C213.02 16.282 212.918 16.294 212.822 16.294C212.654 16.294 212.516 16.252 212.408 16.168C212.3 16.084 212.246 15.958 212.246 15.79C212.246 15.658 212.27 15.562 212.318 15.502C212.378 15.43 212.438 15.364 212.498 15.304C212.558 15.244 212.612 15.178 212.66 15.106C212.72 15.034 212.75 14.938 212.75 14.818C212.75 14.698 212.702 14.602 212.606 14.53C212.51 14.458 212.39 14.422 212.246 14.422C212.018 14.422 211.754 14.542 211.454 14.782C211.154 15.01 210.854 15.31 210.554 15.682C210.266 16.042 209.99 16.456 209.726 16.924C209.462 17.392 209.246 17.86 209.078 18.328L207.782 22H206.522L208.466 16.456ZM219.738 15.16C219.738 14.92 219.666 14.716 219.522 14.548C219.378 14.38 219.138 14.296 218.802 14.296C218.43 14.296 218.07 14.404 217.722 14.62C217.386 14.836 217.08 15.106 216.804 15.43C216.528 15.742 216.288 16.084 216.084 16.456C215.88 16.816 215.724 17.152 215.616 17.464C215.892 17.512 216.198 17.536 216.534 17.536C216.966 17.536 217.374 17.47 217.758 17.338C218.142 17.206 218.478 17.032 218.766 16.816C219.066 16.6 219.3 16.348 219.468 16.06C219.648 15.772 219.738 15.472 219.738 15.16ZM219.774 20.236C219.702 20.32 219.594 20.476 219.45 20.704C219.306 20.92 219.108 21.142 218.856 21.37C218.604 21.586 218.292 21.784 217.92 21.964C217.56 22.132 217.122 22.216 216.606 22.216C216.09 22.216 215.652 22.132 215.292 21.964C214.944 21.796 214.656 21.58 214.428 21.316C214.212 21.052 214.05 20.764 213.942 20.452C213.846 20.128 213.798 19.816 213.798 19.516C213.798 18.916 213.942 18.298 214.23 17.662C214.53 17.014 214.914 16.426 215.382 15.898C215.862 15.358 216.402 14.914 217.002 14.566C217.602 14.218 218.214 14.044 218.838 14.044C219.078 14.044 219.318 14.074 219.558 14.134C219.798 14.182 220.014 14.26 220.206 14.368C220.398 14.476 220.554 14.614 220.674 14.782C220.794 14.95 220.854 15.154 220.854 15.394C220.854 15.718 220.764 16.006 220.584 16.258C220.416 16.498 220.194 16.708 219.918 16.888C219.642 17.056 219.336 17.2 219 17.32C218.676 17.44 218.358 17.536 218.046 17.608C217.734 17.668 217.446 17.716 217.182 17.752C216.93 17.776 216.744 17.788 216.624 17.788C216.42 17.788 216.222 17.782 216.03 17.77C215.838 17.758 215.67 17.74 215.526 17.716C215.394 18.1 215.28 18.484 215.184 18.868C215.1 19.24 215.058 19.636 215.058 20.056C215.058 20.704 215.226 21.19 215.562 21.514C215.898 21.826 216.324 21.982 216.84 21.982C217.224 21.982 217.56 21.91 217.848 21.766C218.148 21.61 218.406 21.43 218.622 21.226C218.85 21.022 219.036 20.818 219.18 20.614C219.336 20.398 219.462 20.23 219.558 20.11L219.774 20.236ZM227.816 16.636C227.96 16.252 228.05 15.982 228.086 15.826C228.134 15.658 228.158 15.514 228.158 15.394C228.158 15.286 228.14 15.172 228.104 15.052C228.08 14.92 228.026 14.8 227.942 14.692C227.87 14.584 227.768 14.494 227.636 14.422C227.504 14.338 227.33 14.296 227.114 14.296C226.718 14.296 226.328 14.41 225.944 14.638C225.572 14.854 225.218 15.142 224.882 15.502C224.558 15.862 224.258 16.276 223.982 16.744C223.706 17.2 223.466 17.668 223.262 18.148C223.07 18.616 222.92 19.072 222.812 19.516C222.704 19.96 222.65 20.35 222.65 20.686C222.65 21.07 222.722 21.382 222.866 21.622C223.022 21.862 223.274 21.982 223.622 21.982C223.97 21.982 224.324 21.874 224.684 21.658C225.044 21.442 225.374 21.184 225.674 20.884C225.974 20.584 226.232 20.284 226.448 19.984C226.664 19.684 226.802 19.45 226.862 19.282L227.816 16.636ZM227.96 19.732C227.852 20.044 227.756 20.344 227.672 20.632C227.6 20.92 227.564 21.178 227.564 21.406C227.564 21.718 227.714 21.874 228.014 21.874C228.254 21.874 228.47 21.808 228.662 21.676C228.854 21.532 229.016 21.376 229.148 21.208C229.292 21.028 229.406 20.854 229.49 20.686C229.586 20.506 229.652 20.38 229.688 20.308L229.922 20.434C229.862 20.566 229.772 20.734 229.652 20.938C229.532 21.142 229.376 21.34 229.184 21.532C228.992 21.712 228.77 21.868 228.518 22C228.266 22.144 227.972 22.216 227.636 22.216C226.844 22.216 226.448 21.856 226.448 21.136C226.448 21.052 226.466 20.908 226.502 20.704C226.538 20.488 226.586 20.296 226.646 20.128H226.61C226.442 20.332 226.25 20.56 226.034 20.812C225.818 21.052 225.572 21.28 225.296 21.496C225.032 21.7 224.738 21.868 224.414 22C224.09 22.144 223.73 22.216 223.334 22.216C223.082 22.216 222.836 22.168 222.596 22.072C222.368 21.988 222.164 21.856 221.984 21.676C221.804 21.484 221.66 21.244 221.552 20.956C221.456 20.668 221.408 20.326 221.408 19.93C221.408 19.45 221.504 18.97 221.696 18.49C221.888 18.01 222.134 17.554 222.434 17.122C222.746 16.678 223.1 16.27 223.496 15.898C223.904 15.526 224.312 15.202 224.72 14.926C225.14 14.65 225.548 14.434 225.944 14.278C226.352 14.122 226.712 14.044 227.024 14.044C227.384 14.044 227.69 14.146 227.942 14.35C228.194 14.554 228.32 14.824 228.32 15.16H228.356L228.662 14.278H229.922L227.96 19.732ZM233.578 14.53H231.94L232.012 14.278H234.856L234.172 16.33H234.208C234.352 16.126 234.532 15.898 234.748 15.646C234.976 15.394 235.228 15.16 235.504 14.944C235.78 14.728 236.074 14.548 236.386 14.404C236.698 14.248 237.01 14.17 237.322 14.17C237.778 14.17 238.126 14.308 238.366 14.584C238.618 14.848 238.744 15.178 238.744 15.574C238.744 15.79 238.714 16.018 238.654 16.258H238.69C238.81 16.078 238.972 15.868 239.176 15.628C239.38 15.388 239.608 15.16 239.86 14.944C240.124 14.728 240.406 14.548 240.706 14.404C241.006 14.248 241.306 14.17 241.606 14.17C242.11 14.17 242.506 14.308 242.794 14.584C243.094 14.848 243.244 15.178 243.244 15.574C243.244 15.778 243.208 15.982 243.136 16.186C243.076 16.378 242.998 16.612 242.902 16.888L241.732 20.218C241.66 20.422 241.594 20.638 241.534 20.866C241.474 21.094 241.444 21.298 241.444 21.478C241.444 21.586 241.474 21.7 241.534 21.82C241.594 21.928 241.72 21.982 241.912 21.982C242.128 21.982 242.326 21.922 242.506 21.802C242.686 21.682 242.848 21.538 242.992 21.37C243.136 21.202 243.262 21.028 243.37 20.848C243.478 20.656 243.568 20.494 243.64 20.362L243.838 20.452C243.778 20.572 243.694 20.734 243.586 20.938C243.478 21.13 243.334 21.322 243.154 21.514C242.986 21.706 242.776 21.868 242.524 22C242.272 22.144 241.972 22.216 241.624 22.216C241.24 22.216 240.916 22.132 240.652 21.964C240.388 21.796 240.256 21.52 240.256 21.136C240.256 20.98 240.268 20.83 240.292 20.686C240.316 20.542 240.376 20.35 240.472 20.11L241.984 15.808C242.08 15.52 242.128 15.28 242.128 15.088C242.128 14.884 242.08 14.722 241.984 14.602C241.888 14.482 241.702 14.422 241.426 14.422C241.174 14.422 240.886 14.524 240.562 14.728C240.25 14.932 239.932 15.208 239.608 15.556C239.296 15.904 238.996 16.312 238.708 16.78C238.42 17.236 238.18 17.722 237.988 18.238L236.638 22H235.378L237.484 16.186C237.652 15.682 237.736 15.334 237.736 15.142C237.736 14.926 237.694 14.752 237.61 14.62C237.526 14.488 237.376 14.422 237.16 14.422C236.944 14.422 236.674 14.506 236.35 14.674C236.038 14.83 235.714 15.07 235.378 15.394C235.042 15.706 234.712 16.102 234.388 16.582C234.076 17.05 233.806 17.602 233.578 18.238L232.228 22H230.986L233.578 14.53ZM246.624 18.004C246.444 17.764 246.276 17.53 246.12 17.302C245.976 17.062 245.904 16.78 245.904 16.456C245.904 16.18 245.976 15.898 246.12 15.61C246.264 15.322 246.462 15.064 246.714 14.836C246.966 14.596 247.266 14.404 247.614 14.26C247.974 14.116 248.358 14.044 248.766 14.044C249.27 14.044 249.672 14.158 249.972 14.386C250.284 14.602 250.44 14.884 250.44 15.232C250.44 15.736 250.194 15.988 249.702 15.988C249.534 15.988 249.384 15.94 249.252 15.844C249.132 15.748 249.072 15.61 249.072 15.43C249.072 15.262 249.108 15.142 249.18 15.07C249.264 14.986 249.306 14.884 249.306 14.764C249.306 14.452 249.102 14.296 248.694 14.296C248.406 14.296 248.154 14.338 247.938 14.422C247.734 14.506 247.56 14.62 247.416 14.764C247.284 14.908 247.182 15.07 247.11 15.25C247.05 15.43 247.02 15.61 247.02 15.79C247.02 16.03 247.08 16.258 247.2 16.474C247.32 16.678 247.488 16.924 247.704 17.212L248.766 18.598C248.91 18.778 249.006 18.97 249.054 19.174C249.114 19.366 249.144 19.564 249.144 19.768C249.144 20.176 249.042 20.536 248.838 20.848C248.634 21.148 248.376 21.4 248.064 21.604C247.764 21.808 247.434 21.958 247.074 22.054C246.726 22.162 246.396 22.216 246.084 22.216C245.808 22.216 245.544 22.186 245.292 22.126C245.04 22.066 244.818 21.982 244.626 21.874C244.422 21.754 244.26 21.61 244.14 21.442C244.02 21.262 243.96 21.058 243.96 20.83C243.96 20.554 244.05 20.35 244.23 20.218C244.398 20.074 244.614 20.002 244.878 20.002C244.986 20.002 245.082 20.044 245.166 20.128C245.262 20.2 245.31 20.29 245.31 20.398C245.31 20.542 245.28 20.68 245.22 20.812C245.16 20.932 245.13 21.064 245.13 21.208C245.13 21.496 245.22 21.7 245.4 21.82C245.592 21.928 245.838 21.982 246.138 21.982C246.438 21.982 246.702 21.934 246.93 21.838C247.17 21.742 247.368 21.622 247.524 21.478C247.692 21.334 247.818 21.172 247.902 20.992C247.986 20.812 248.028 20.644 248.028 20.488C248.028 20.248 247.986 20.032 247.902 19.84C247.83 19.648 247.704 19.432 247.524 19.192L246.624 18.004ZM261.794 16.636C261.938 16.252 262.028 15.982 262.064 15.826C262.112 15.658 262.136 15.514 262.136 15.394C262.136 15.286 262.118 15.172 262.082 15.052C262.058 14.92 262.004 14.8 261.92 14.692C261.848 14.584 261.746 14.494 261.614 14.422C261.482 14.338 261.308 14.296 261.092 14.296C260.696 14.296 260.306 14.41 259.922 14.638C259.55 14.854 259.196 15.142 258.86 15.502C258.536 15.862 258.236 16.276 257.96 16.744C257.684 17.2 257.444 17.668 257.24 18.148C257.048 18.616 256.898 19.072 256.79 19.516C256.682 19.96 256.628 20.35 256.628 20.686C256.628 21.07 256.7 21.382 256.844 21.622C257 21.862 257.252 21.982 257.6 21.982C257.948 21.982 258.302 21.874 258.662 21.658C259.022 21.442 259.352 21.184 259.652 20.884C259.952 20.584 260.21 20.284 260.426 19.984C260.642 19.684 260.78 19.45 260.84 19.282L261.794 16.636ZM261.938 19.732C261.83 20.044 261.734 20.344 261.65 20.632C261.578 20.92 261.542 21.178 261.542 21.406C261.542 21.718 261.692 21.874 261.992 21.874C262.232 21.874 262.448 21.808 262.64 21.676C262.832 21.532 262.994 21.376 263.126 21.208C263.27 21.028 263.384 20.854 263.468 20.686C263.564 20.506 263.63 20.38 263.666 20.308L263.9 20.434C263.84 20.566 263.75 20.734 263.63 20.938C263.51 21.142 263.354 21.34 263.162 21.532C262.97 21.712 262.748 21.868 262.496 22C262.244 22.144 261.95 22.216 261.614 22.216C260.822 22.216 260.426 21.856 260.426 21.136C260.426 21.052 260.444 20.908 260.48 20.704C260.516 20.488 260.564 20.296 260.624 20.128H260.588C260.42 20.332 260.228 20.56 260.012 20.812C259.796 21.052 259.55 21.28 259.274 21.496C259.01 21.7 258.716 21.868 258.392 22C258.068 22.144 257.708 22.216 257.312 22.216C257.06 22.216 256.814 22.168 256.574 22.072C256.346 21.988 256.142 21.856 255.962 21.676C255.782 21.484 255.638 21.244 255.53 20.956C255.434 20.668 255.386 20.326 255.386 19.93C255.386 19.45 255.482 18.97 255.674 18.49C255.866 18.01 256.112 17.554 256.412 17.122C256.724 16.678 257.078 16.27 257.474 15.898C257.882 15.526 258.29 15.202 258.698 14.926C259.118 14.65 259.526 14.434 259.922 14.278C260.33 14.122 260.69 14.044 261.002 14.044C261.362 14.044 261.668 14.146 261.92 14.35C262.172 14.554 262.298 14.824 262.298 15.16H262.334L262.64 14.278H263.9L261.938 19.732ZM267.106 16.456C267.214 16.144 267.316 15.826 267.412 15.502C267.508 15.178 267.604 14.854 267.7 14.53H266.134L266.206 14.278H268.978C268.918 14.53 268.828 14.848 268.708 15.232C268.6 15.616 268.48 15.988 268.348 16.348L268.384 16.384C268.504 16.204 268.654 15.988 268.834 15.736C269.014 15.484 269.218 15.244 269.446 15.016C269.674 14.776 269.926 14.578 270.202 14.422C270.478 14.254 270.772 14.17 271.084 14.17C271.528 14.17 271.864 14.296 272.092 14.548C272.332 14.8 272.446 15.07 272.434 15.358C272.434 15.55 272.398 15.712 272.326 15.844C272.266 15.964 272.182 16.06 272.074 16.132C271.978 16.192 271.876 16.234 271.768 16.258C271.66 16.282 271.558 16.294 271.462 16.294C271.294 16.294 271.156 16.252 271.048 16.168C270.94 16.084 270.886 15.958 270.886 15.79C270.886 15.658 270.91 15.562 270.958 15.502C271.018 15.43 271.078 15.364 271.138 15.304C271.198 15.244 271.252 15.178 271.3 15.106C271.36 15.034 271.39 14.938 271.39 14.818C271.39 14.698 271.342 14.602 271.246 14.53C271.15 14.458 271.03 14.422 270.886 14.422C270.658 14.422 270.394 14.542 270.094 14.782C269.794 15.01 269.494 15.31 269.194 15.682C268.906 16.042 268.63 16.456 268.366 16.924C268.102 17.392 267.886 17.86 267.718 18.328L266.422 22H265.162L267.106 16.456ZM278.378 15.16C278.378 14.92 278.306 14.716 278.162 14.548C278.018 14.38 277.778 14.296 277.442 14.296C277.07 14.296 276.71 14.404 276.362 14.62C276.026 14.836 275.72 15.106 275.444 15.43C275.168 15.742 274.928 16.084 274.724 16.456C274.52 16.816 274.364 17.152 274.256 17.464C274.532 17.512 274.838 17.536 275.174 17.536C275.606 17.536 276.014 17.47 276.398 17.338C276.782 17.206 277.118 17.032 277.406 16.816C277.706 16.6 277.94 16.348 278.108 16.06C278.288 15.772 278.378 15.472 278.378 15.16ZM278.414 20.236C278.342 20.32 278.234 20.476 278.09 20.704C277.946 20.92 277.748 21.142 277.496 21.37C277.244 21.586 276.932 21.784 276.56 21.964C276.2 22.132 275.762 22.216 275.246 22.216C274.73 22.216 274.292 22.132 273.932 21.964C273.584 21.796 273.296 21.58 273.068 21.316C272.852 21.052 272.69 20.764 272.582 20.452C272.486 20.128 272.438 19.816 272.438 19.516C272.438 18.916 272.582 18.298 272.87 17.662C273.17 17.014 273.554 16.426 274.022 15.898C274.502 15.358 275.042 14.914 275.642 14.566C276.242 14.218 276.854 14.044 277.478 14.044C277.718 14.044 277.958 14.074 278.198 14.134C278.438 14.182 278.654 14.26 278.846 14.368C279.038 14.476 279.194 14.614 279.314 14.782C279.434 14.95 279.494 15.154 279.494 15.394C279.494 15.718 279.404 16.006 279.224 16.258C279.056 16.498 278.834 16.708 278.558 16.888C278.282 17.056 277.976 17.2 277.64 17.32C277.316 17.44 276.998 17.536 276.686 17.608C276.374 17.668 276.086 17.716 275.822 17.752C275.57 17.776 275.384 17.788 275.264 17.788C275.06 17.788 274.862 17.782 274.67 17.77C274.478 17.758 274.31 17.74 274.166 17.716C274.034 18.1 273.92 18.484 273.824 18.868C273.74 19.24 273.698 19.636 273.698 20.056C273.698 20.704 273.866 21.19 274.202 21.514C274.538 21.826 274.964 21.982 275.48 21.982C275.864 21.982 276.2 21.91 276.488 21.766C276.788 21.61 277.046 21.43 277.262 21.226C277.49 21.022 277.676 20.818 277.82 20.614C277.976 20.398 278.102 20.23 278.198 20.11L278.414 20.236Z" fill="#FFCEDE"/>
</svg>
