<svg xmlns="http://www.w3.org/2000/svg" width="24" height="24" fill="none"><path fill="#FB9EBC" d="M6.903.198h9.914a6.85 6.85 0 0 1 6.845 6.845v9.913a6.845 6.845 0 0 1-6.845 6.845H6.903A6.85 6.85 0 0 1 .06 16.956V7.043A6.845 6.845 0 0 1 6.903.198m-.236 2.36a4.25 4.25 0 0 0-4.248 4.25v10.384c0 2.349 1.9 4.249 4.248 4.249h10.386a4.25 4.25 0 0 0 4.248-4.249V6.807c0-2.348-1.9-4.248-4.248-4.248zm11.389 1.77a1.475 1.475 0 1 1 0 2.951 1.475 1.475 0 0 1 0-2.95M11.86 6.1a5.9 5.9 0 1 1 0 11.802 5.9 5.9 0 0 1 0-11.802m0 2.36a3.54 3.54 0 1 0 0 7.081 3.54 3.54 0 0 0 0-7.08"/></svg>