<svg xmlns="http://www.w3.org/2000/svg" width="137" height="65" fill="none"><path fill="#FB9EBC" d="M1.172 11.758V1.152H2.49V5.87H8.1V1.152h1.334v10.606H8.1V7.026H2.49v4.732zm19.39-5.303c0 3.355-1.977 5.45-4.687 5.45-2.725 0-4.687-2.095-4.687-5.45s1.962-5.45 4.687-5.45c2.71 0 4.688 2.096 4.688 5.45m-1.274 0c0-2.74-1.494-4.219-3.413-4.219s-3.413 1.48-3.413 4.22c0 2.738 1.494 4.218 3.413 4.218s3.413-1.48 3.413-4.219m3.043-5.303h1.582l3.574 8.73h.132l3.574-8.73h1.582v10.606H31.53V3.745h-.102l-3.296 8.013H26.96l-3.296-8.013h-.088v8.013h-1.245zm12.623 10.606V1.152h6.43v1.172h-5.111V5.87h4.775v1.157h-4.775v3.56h5.185v1.172zm18.83-4.702L47.09 10.44V9.077l5.068-2.417v-.088L47.09 4.141V2.778l6.694 3.399zm7.917 4.702-2.9-10.606h1.333l2.212 8.584h.103l2.24-8.584h1.48l2.256 8.584h.088l2.212-8.584h1.333l-2.9 10.606h-1.363l-2.314-8.394h-.088l-2.33 8.394zm20.05-5.303c0 3.355-1.977 5.45-4.687 5.45-2.725 0-4.688-2.095-4.688-5.45s1.963-5.45 4.688-5.45c2.71 0 4.687 2.096 4.687 5.45m-1.274 0c0-2.74-1.494-4.219-3.413-4.219-1.92 0-3.413 1.48-3.413 4.22 0 2.738 1.494 4.218 3.413 4.218s3.413-1.48 3.413-4.219m3.043 5.303V1.152h3.603c2.49 0 3.619 1.377 3.619 3.267 0 1.399-.63 2.505-1.978 2.974l2.388 4.365h-1.538l-2.212-4.131-.264.015h-2.3v4.116zm1.318-5.318h2.242c1.684 0 2.358-.761 2.358-2.021 0-1.274-.674-2.095-2.373-2.095h-2.227zm7.643 5.318V1.152h1.318v5.244h.132l4.717-5.244h1.728l-4.438 4.79 4.438 5.816h-1.611L95.118 6.85l-1.319 1.494v3.413z"/><path fill="#FFDCE6" d="M9.8 63.758.703 31.94H7.91l5.361 22.237h.264L19.38 31.94h6.196l5.845 22.28h.264l5.36-22.28h7.208l-9.097 31.817h-6.46l-6.064-21.006h-.264L16.26 63.758zm45.34.483c-7.207 0-11.69-4.966-11.69-12.348s4.483-12.305 11.69-12.305 11.733 4.922 11.733 12.305c0 7.382-4.526 12.348-11.733 12.348m.044-5.053c3.34 0 5.053-3.12 5.053-7.295 0-4.22-1.713-7.34-5.053-7.34-3.384 0-5.142 3.12-5.142 7.34 0 4.174 1.758 7.294 5.142 7.294m15.281 4.57V39.895h6.284v4.131h.264c.879-2.944 3.076-4.482 5.757-4.482.659 0 1.494.088 2.065.22v5.8c-.615-.175-1.845-.351-2.768-.351-2.945 0-5.098 2.065-5.098 4.966v13.579zm17.04 0V31.94h6.503v17.095h.352l7.734-9.14h7.471l-8.877 10.327 9.36 13.535h-7.646l-6.548-9.712-1.846 2.065v7.647z"/></svg>