<svg xmlns="http://www.w3.org/2000/svg" width="126" height="28" fill="none"><rect width="39" height="27" x=".5" y=".5" fill="#E1E8EE" rx="1.5"/><rect width="39" height="27" x=".5" y=".5" stroke="#475D75" rx="1.5"/><path fill="#475D75" d="M11.723 20V8.688h3.969c2.375 0 3.492 1.335 3.484 3 .008 1.453-.86 2.101-1.844 2.374v.11c1.055.062 2.29 1.031 2.297 2.828-.008 1.695-1.125 3-3.797 3zm1.406-1.25h2.688c1.773 0 2.46-.781 2.453-1.766.008-1.148-.922-2.125-2.375-2.125h-2.766zm0-5.11h2.516c1.226.008 2.187-.757 2.187-1.937 0-.984-.664-1.765-2.14-1.765h-2.563zm9.043-4.953 2.875 4.672h.094l2.89-4.671h1.657l-3.547 5.656L29.688 20H28.03l-2.89-4.578h-.094L22.157 20H20.5l3.64-5.656-3.64-5.656z"/><rect width="81" height="28" x="45" fill="#475D75" rx="2"/><path fill="#E1E8EE" d="M56.681 20V8.688h3.844c2.648 0 3.86 1.578 3.86 3.593 0 2.008-1.212 3.61-3.845 3.61h-2.453V20zm1.406-5.36h2.39c1.806 0 2.509-1.015 2.517-2.359-.008-1.351-.711-2.344-2.532-2.344h-2.375zm7.496 2.954c0-1.946 1.719-2.39 3.188-2.5.546-.04 1.914-.117 2.296-.125v-.688c0-1.078-.64-1.703-1.921-1.703-1.07 0-1.72.492-1.907 1.14h-1.406c.172-1.366 1.5-2.312 3.375-2.312 1.11 0 3.195.328 3.188 3V20h-1.329v-1.156h-.062c-.281.57-1.055 1.351-2.531 1.36-1.61-.009-2.89-.954-2.89-2.61m1.344.062c.008.899.75 1.352 1.781 1.344 1.516.008 2.36-1.008 2.36-2.078v-.852c-.399.024-1.735.125-2.141.149-1.219.078-1.992.508-2 1.437m10.918 2.516c-2.407.008-3.875-1.828-3.875-4.375 0-2.578 1.539-4.39 3.843-4.39 1.805 0 3.164 1.07 3.375 2.671h-1.343c-.196-.773-.868-1.484-2-1.484-1.516 0-2.524 1.25-2.532 3.156.008 1.96.993 3.219 2.532 3.219 1 0 1.765-.54 2-1.469h1.343c-.21 1.516-1.46 2.68-3.343 2.672M82.669 20V8.688h1.343v6.578h.157l3.672-3.75h1.656l-3.578 3.632L89.762 20H88.06l-3.148-4-.899.836V20zm7.683-2.406c0-1.946 1.719-2.39 3.188-2.5.546-.04 1.914-.117 2.296-.125v-.688c0-1.078-.64-1.703-1.921-1.703-1.07 0-1.72.492-1.907 1.14h-1.406c.172-1.366 1.5-2.312 3.375-2.312 1.11 0 3.195.328 3.188 3V20h-1.329v-1.156h-.062c-.281.57-1.055 1.351-2.531 1.36-1.61-.009-2.891-.954-2.891-2.61m1.344.062c.008.899.75 1.352 1.781 1.344 1.516.008 2.36-1.008 2.36-2.078v-.852c-.4.024-1.735.125-2.141.149-1.219.078-1.992.508-2 1.437m10.886 5.703c-2.054 0-3.445-.898-3.593-2.468h1.406c.179.867.984 1.297 2.187 1.297 1.453 0 2.344-.633 2.344-2.032v-1.718h-.109c-.289.468-.829 1.43-2.469 1.437-2.063-.008-3.61-1.562-3.61-4.234 0-2.61 1.493-4.235 3.625-4.235 1.649 0 2.18 1 2.485 1.453h.109v-1.343h1.313v8.718c-.008 2.188-1.617 3.125-3.688 3.125m-2.484-7.672c0 1.758.828 2.985 2.437 2.985 1.555 0 2.414-1.117 2.422-2.985-.008-1.82-.844-3.078-2.422-3.078-1.632 0-2.437 1.368-2.437 3.079m11.699 4.485c-2.453.008-3.969-1.742-3.969-4.344 0-2.61 1.539-4.422 3.844-4.422 1.781 0 3.664 1.094 3.656 4.235v.562h-6.156c.07 1.797 1.117 2.781 2.625 2.781 1.015 0 1.656-.445 1.969-.968h1.437c-.398 1.289-1.656 2.164-3.406 2.156m-2.617-5.11h4.789c-.008-1.414-.899-2.468-2.297-2.468-1.469 0-2.399 1.156-2.492 2.469"/></svg>